<svg width="2351" height="680" viewBox="0 0 2351 680" fill="none" xmlns="http://www.w3.org/2000/svg">
<path d="M707.31 565.63C699.75 565.63 693.03 563.67 687.15 560.03C681.27 556.39 676.51 550.23 673.43 542.11L612.1 366.25H649.07L701.16 528.39C702 530.35 702.84 531.75 703.68 532.59C704.52 533.71 705.92 534.27 707.32 534.27C708.72 534.27 710.12 533.71 711.24 532.59C712.08 531.75 712.92 530.35 713.48 528.39L767.25 366.25H802.53L741.2 542.11C738.4 549.95 733.92 555.83 727.76 559.75C721.88 563.67 714.88 565.63 707.32 565.63H707.31Z" fill="#006492"/>
<path d="M817.36 562.27V532.87H853.76V395.65H817.36V366.25H923.77V395.65H887.37V532.87H923.77V562.27H817.36Z" fill="#006492"/>
<path d="M958.23 562.27V532.87H1042.52C1047.84 532.87 1052.6 531.47 1056.8 528.95C1060.72 526.43 1063.8 522.79 1066.32 518.59C1068.56 514.39 1069.68 510.19 1069.68 505.43C1069.68 500.39 1068.56 495.91 1066.32 491.71C1064.08 487.51 1061 484.43 1057.08 481.91C1052.88 479.39 1048.4 478.27 1043.08 478.27H1008.08C997.16 478.27 987.08 476.03 978.4 471.27C970 466.79 963 460.35 957.96 452.23C952.92 444.11 950.4 434.31 950.4 423.11C950.4 411.91 952.92 402.11 957.68 393.43C962.44 385.03 969.16 378.31 977.56 373.55C985.96 368.79 995.48 366.27 1006.12 366.27H1090.41V395.67H1009.2C1004.44 395.67 999.96 396.79 996.04 399.31C992.12 401.83 989.04 404.91 986.8 408.83C984.84 412.75 983.72 416.95 983.72 421.43C983.72 426.19 984.84 430.39 986.8 434.03C989.04 437.95 992.12 441.03 995.76 443.27C999.68 445.79 1004.16 446.91 1008.92 446.91H1044.76C1056.8 446.91 1067.16 449.15 1075.84 453.91C1084.52 458.67 1091.24 465.11 1096 473.23C1100.76 481.35 1103 490.87 1103 501.51C1103 514.11 1100.48 524.75 1095.72 533.71C1090.68 542.95 1083.96 549.95 1075.56 554.71C1066.88 559.75 1057.36 562.27 1046.72 562.27H958.23Z" fill="#006492"/>
<path d="M1128.49 562.27V532.87H1164.89V395.65H1128.49V366.25H1234.9V395.65H1198.5V532.87H1234.9V562.27H1128.49Z" fill="#006492"/>
<path d="M1361.75 565.91C1346.35 565.91 1332.35 563.11 1319.74 557.79C1306.86 552.47 1296.22 545.19 1287.54 535.95C1278.58 526.71 1271.58 515.79 1266.82 503.47C1262.06 491.15 1259.54 477.99 1259.54 463.98C1259.54 449.97 1262.06 436.82 1266.82 424.49C1271.58 412.45 1278.58 401.53 1287.54 392.29C1296.22 383.05 1306.86 375.77 1319.74 370.45C1332.34 365.13 1346.34 362.61 1362.03 362.61C1377.72 362.61 1391.43 365.13 1404.04 370.45C1416.64 375.77 1427.28 383.05 1436.24 392.29C1445.2 401.53 1452.2 412.45 1456.96 424.49C1461.72 436.81 1464.24 449.97 1464.24 463.98C1464.24 477.99 1461.72 491.14 1456.96 503.47C1452.2 515.79 1445.2 526.71 1436.24 535.95C1427.28 545.19 1416.64 552.47 1404.04 557.79C1391.44 563.11 1377.44 565.91 1361.75 565.91ZM1361.75 536.23C1371.55 536.23 1380.79 534.55 1389.19 530.91C1397.59 527.27 1404.87 522.23 1411.31 515.51C1417.47 509.07 1422.23 501.23 1425.59 492.55C1428.95 483.87 1430.63 474.35 1430.63 463.99C1430.63 453.63 1428.95 444.11 1425.59 435.43C1422.23 426.75 1417.47 419.19 1411.31 412.47C1404.87 406.03 1397.59 400.99 1389.19 397.35C1380.79 393.71 1371.55 392.03 1361.75 392.03C1351.95 392.03 1342.99 393.71 1334.59 397.35C1326.19 400.99 1318.91 406.03 1312.75 412.47C1306.31 419.19 1301.55 426.75 1297.91 435.43C1294.55 444.11 1292.87 453.63 1292.87 463.99C1292.87 474.35 1294.55 483.87 1297.91 492.55C1301.55 501.23 1306.31 509.07 1312.75 515.51C1318.91 522.23 1326.19 527.27 1334.59 530.91C1342.99 534.55 1351.95 536.23 1361.75 536.23Z" fill="#006492"/>
<path d="M1493.65 562.27V442.97C1493.65 426.45 1497.01 412.17 1504.01 400.12C1510.73 388.08 1519.97 378.84 1532.01 372.4C1544.05 365.96 1557.77 362.88 1573.18 362.88C1588.59 362.88 1602.3 365.96 1614.35 372.4C1626.39 378.84 1635.63 388.08 1642.63 400.12C1649.63 412.16 1652.99 426.44 1652.99 442.97V562.27H1619.39V440.17C1619.39 431.49 1617.43 423.37 1613.79 416.09C1610.15 408.81 1604.83 402.93 1598.11 398.73C1591.11 394.53 1582.99 392.29 1573.19 392.29C1563.95 392.29 1555.83 394.53 1548.83 398.73C1541.83 402.93 1536.51 408.81 1532.87 416.09C1528.95 423.37 1526.99 431.49 1526.99 440.17V562.27H1493.67H1493.65Z" fill="#006492"/>
<path d="M219.65 319.23V137.6H280.88C300.25 137.6 317.03 141.49 331.22 149.28C345.4 157.06 356.43 167.79 364.3 181.45C372.17 195.12 376.11 210.77 376.11 228.41C376.11 246.05 372.17 261.71 364.3 275.37C356.43 289.04 345.4 299.76 331.22 307.54C317.03 315.32 300.26 319.22 280.88 319.22H219.65V319.23ZM256.75 286.54H280.88C292.12 286.54 302.11 284.2 310.85 279.53C319.58 274.86 326.46 268.16 331.48 259.42C336.5 250.69 339 240.35 339 228.41C339 216.47 336.49 205.93 331.48 197.27C326.46 188.62 319.59 181.96 310.85 177.29C302.11 172.62 292.12 170.28 280.88 170.28H256.75V286.52V286.54Z" fill="#FFD843"/>
<path d="M376.11 319.23L435.27 157.84C438.21 150.06 442.84 144.22 449.15 140.33C455.46 136.44 462.6 134.49 470.56 134.49C478.52 134.49 485.69 136.35 492.1 140.07C498.5 143.79 503.08 149.63 505.85 157.58L565.27 319.23H524.53L512.33 282.65H427.74L415.03 319.23H376.11ZM438.9 249.96H501.43L475.22 170.3C474.87 169.09 474.31 168.22 473.53 167.71C472.75 167.2 471.84 166.93 470.81 166.93C469.78 166.93 468.9 167.23 468.22 167.84C467.53 168.45 467.01 169.27 466.66 170.3L438.9 249.96Z" fill="#FFD843"/>
<path d="M653.73 322.35C639.03 322.35 626.01 319.32 614.68 313.27C603.35 307.22 594.44 298.61 587.95 287.45C581.46 276.29 578.22 263.02 578.22 247.62V137.61H615.32V249.96C615.32 257.23 616.88 263.84 619.99 269.81C623.1 275.78 627.55 280.58 633.35 284.21C639.14 287.84 646.02 289.66 653.98 289.66C661.94 289.66 668.51 287.84 674.22 284.21C679.93 280.58 684.34 275.78 687.45 269.81C690.56 263.84 692.12 257.23 692.12 249.96V137.61H729.22V247.62C729.22 263.02 725.98 276.29 719.49 287.45C713 298.61 704.09 307.21 692.76 313.27C681.43 319.32 668.41 322.35 653.71 322.35H653.73Z" fill="#FFD843"/>
<path d="M1028.98 319.23C1018.25 319.23 1008.83 316.77 1000.7 311.83C992.57 306.9 986.25 300.33 981.76 292.11C977.26 283.9 975.01 274.86 975.01 265V170.29H924.41V137.6H1062.71V170.29H1012.11V269.41C1012.11 274.08 1013.75 278.1 1017.04 281.48C1020.32 284.85 1024.31 286.54 1028.98 286.54H1041.95V319.23H1028.98Z" fill="#FFD843"/>
<path d="M1135.62 319.23C1124.89 319.23 1115.47 316.77 1107.34 311.83C1099.21 306.9 1092.89 300.33 1088.4 292.11C1083.9 283.9 1081.65 274.86 1081.65 265V137.6H1118.75V269.41C1118.75 274.08 1120.39 278.1 1123.68 281.48C1126.96 284.85 1130.94 286.54 1135.62 286.54H1183.62V319.23H1135.62Z" fill="#FFD843"/>
<path d="M1253.42 319.23C1243.39 319.23 1234.26 316.81 1226.05 311.96C1217.83 307.12 1211.3 300.59 1206.46 292.37C1201.62 284.16 1199.2 275.03 1199.2 265C1199.2 257.73 1200.76 250.9 1203.87 244.5C1206.98 238.1 1211.22 232.48 1216.58 227.63C1211.22 222.79 1206.98 217.17 1203.87 210.76C1200.76 204.36 1199.2 197.62 1199.2 190.52C1199.2 180.66 1201.58 171.75 1206.33 163.79C1211.09 155.84 1217.49 149.48 1225.53 144.72C1233.57 139.96 1242.44 137.58 1252.12 137.58H1326.85V170.27H1256.28C1252.65 170.27 1249.31 171.18 1246.29 172.99C1243.26 174.81 1240.84 177.23 1239.03 180.26C1237.21 183.29 1236.31 186.71 1236.31 190.51C1236.31 194.31 1237.22 197.48 1239.03 200.5C1240.85 203.53 1243.27 205.95 1246.29 207.76C1249.31 209.58 1252.65 210.48 1256.28 210.48H1318.03V243.17H1257.83C1253.85 243.17 1250.22 244.17 1246.93 246.15C1243.64 248.14 1241.05 250.78 1239.15 254.06C1237.24 257.35 1236.3 260.98 1236.3 264.96C1236.3 268.94 1237.25 272.57 1239.15 275.86C1241.05 279.15 1243.65 281.74 1246.93 283.64C1250.21 285.55 1253.85 286.49 1257.83 286.49H1326.85V319.18H1253.42V319.23Z" fill="#FFD843"/>
<path d="M1355.13 319.23V286.54H1432.97C1436.77 286.54 1440.24 285.59 1443.35 283.69C1446.46 281.79 1448.97 279.24 1450.87 276.04C1452.77 272.84 1453.72 269.34 1453.72 265.53C1453.72 261.72 1452.77 257.97 1450.87 254.76C1448.96 251.56 1446.46 249.01 1443.35 247.11C1440.24 245.21 1436.77 244.26 1432.97 244.26H1402.61C1392.4 244.26 1383.15 242.18 1374.85 238.03C1366.55 233.88 1359.93 227.87 1355 220C1350.07 212.13 1347.61 202.66 1347.61 191.59C1347.61 180.52 1349.94 171.22 1354.62 163.18C1359.29 155.14 1365.6 148.87 1373.56 144.37C1381.51 139.87 1390.34 137.62 1400.03 137.62H1478.91V170.31H1403.66C1400.2 170.31 1397 171.22 1394.06 173.03C1391.12 174.85 1388.83 177.23 1387.18 180.17C1385.53 183.11 1384.72 186.4 1384.72 190.03C1384.72 193.66 1385.54 196.95 1387.18 199.89C1388.82 202.83 1391.11 205.17 1394.06 206.9C1397 208.63 1400.2 209.49 1403.66 209.49H1435.06C1446.3 209.49 1456.08 211.66 1464.38 215.98C1472.68 220.31 1479.13 226.36 1483.71 234.14C1488.29 241.92 1490.59 251.01 1490.59 261.38C1490.59 273.66 1488.21 284.13 1483.46 292.78C1478.7 301.43 1472.3 308 1464.26 312.5C1456.22 317 1447.35 319.25 1437.67 319.25H1355.16L1355.13 319.23Z" fill="#FFD843"/>
<path d="M1517.55 319.23V286.54H1595.39C1599.19 286.54 1602.66 285.59 1605.77 283.69C1608.88 281.79 1611.39 279.24 1613.29 276.04C1615.19 272.84 1616.14 269.34 1616.14 265.53C1616.14 261.72 1615.19 257.97 1613.29 254.76C1611.38 251.56 1608.88 249.01 1605.77 247.11C1602.66 245.21 1599.19 244.26 1595.39 244.26H1565.03C1554.82 244.26 1545.57 242.18 1537.27 238.03C1528.97 233.88 1522.35 227.87 1517.42 220C1512.49 212.13 1510.03 202.66 1510.03 191.59C1510.03 180.52 1512.36 171.22 1517.04 163.18C1521.71 155.14 1528.02 148.87 1535.98 144.37C1543.93 139.87 1552.76 137.62 1562.45 137.62H1641.33V170.31H1566.08C1562.62 170.31 1559.42 171.22 1556.48 173.03C1553.54 174.85 1551.25 177.23 1549.6 180.17C1547.95 183.11 1547.14 186.4 1547.14 190.03C1547.14 193.66 1547.96 196.95 1549.6 199.89C1551.24 202.83 1553.53 205.17 1556.48 206.9C1559.42 208.63 1562.62 209.49 1566.08 209.49H1597.48C1608.72 209.49 1618.5 211.66 1626.8 215.98C1635.1 220.31 1641.55 226.36 1646.13 234.14C1650.71 241.92 1653.01 251.01 1653.01 261.38C1653.01 273.66 1650.63 284.13 1645.88 292.78C1641.12 301.43 1634.72 308 1626.68 312.5C1618.64 317 1609.77 319.25 1600.09 319.25H1517.58L1517.55 319.23Z" fill="#FFD843"/>
<path d="M837.17 132.49C851.87 132.49 864.89 135.52 876.22 141.57C887.55 147.62 896.46 156.23 902.95 167.39C909.44 178.55 912.68 191.82 912.68 207.22V317.23H875.58V204.88C875.58 197.61 874.02 191 870.91 185.03C867.8 179.06 863.35 174.26 857.55 170.63C851.76 167 844.88 165.18 836.92 165.18C828.96 165.18 822.39 167 816.68 170.63C810.97 174.26 806.56 179.06 803.45 185.03C800.34 191 798.78 197.61 798.78 204.88V317.23H761.68V207.22C761.68 191.82 764.92 178.55 771.41 167.39C777.9 156.23 786.81 147.63 798.14 141.57C809.47 135.52 822.49 132.49 837.19 132.49H837.17Z" fill="#FFD843"/>
<path d="M1949.12 117.107C1979.92 116.822 1979.92 116.822 1993.48 120.871C1994.43 121.14 1994.43 121.14 1995.4 121.415C2014.65 127.02 2031.96 137.916 2046.35 151.733C2047.6 152.882 2047.6 152.882 2048.87 154.054C2071.26 175.102 2080.94 203.186 2086 232.855C2086.12 233.533 2086.23 234.211 2086.35 234.909C2090.8 262.358 2086.97 291.045 2076.31 316.624C2076.85 316.725 2077.38 316.826 2077.94 316.93C2097.54 320.729 2097.54 320.73 2105.39 327.205C2106.57 328.159 2107.76 329.113 2108.95 330.067C2112.2 332.703 2115.41 335.382 2118.61 338.078C2121.02 340.096 2123.44 342.084 2125.87 344.069C2126.59 344.653 2127.3 345.238 2128.04 345.84C2129.51 347.039 2131.01 348.206 2132.52 349.353C2133.16 349.901 2133.81 350.449 2134.47 351.013V352.776C2135.23 353.1 2135.23 353.101 2136 353.431C2147.35 359.77 2156.38 377.376 2160.9 388.929C2161.26 389.769 2161.62 390.609 2162 391.474C2166.5 403.392 2166.41 418.697 2161.38 430.427C2157.46 437.884 2152.38 444.323 2145.92 449.771H2144.16V451.535C2143.6 451.977 2143.05 452.419 2142.47 452.875C2139.72 456.143 2139.78 459.447 2139.37 463.604C2138.31 472.298 2136.39 480.289 2133.58 488.569C2133.11 490.044 2133.11 490.044 2132.63 491.549C2128.47 503.526 2121.31 513.986 2112.44 522.959C2111.89 523.55 2111.34 524.141 2110.78 524.75C2086.62 550.243 2049.65 558.407 2016.39 564.402C2015.63 564.54 2014.87 564.676 2014.09 564.818C1950.69 575.988 1864.01 571.638 1808.66 535.083C1807.12 533.99 1805.57 532.889 1804.04 531.776C1803.37 531.328 1802.71 530.88 1802.03 530.419C1800.61 529.453 1799.23 528.419 1797.87 527.367V525.603C1797.4 525.403 1796.92 525.204 1796.44 524.998C1793.62 523.439 1791.45 521.603 1789.06 519.431V517.668H1787.3C1773.26 502.764 1765.53 484.187 1762.08 464.241C1760.89 457.739 1758.8 455.208 1753.43 451.4C1745.56 445.719 1739.91 436.299 1737.95 426.845C1734.61 403.363 1740.09 379.496 1753.79 360.003C1755.5 357.823 1757.27 355.733 1759.1 353.658C1759.69 352.957 1760.29 352.255 1760.9 351.533C1771.88 338.886 1789.51 319.948 1806.85 318.552C1811.74 318.064 1813.82 317.168 1817.03 313.427C1817.64 312.645 1818.24 311.863 1818.86 311.057C1821.91 307.287 1825.73 304.524 1829.59 301.634C1828.67 297.326 1827.68 293.052 1826.56 288.79C1817.18 252.965 1818.24 216.84 1836.95 184.179C1841.78 176.087 1847.43 168.717 1853.38 161.432C1854.02 160.59 1854.66 159.747 1855.32 158.88C1855.84 158.267 1856.37 157.654 1856.91 157.023H1858.67C1859.25 155.859 1859.83 154.695 1860.43 153.496H1862.19V151.733C1883.26 129.347 1916.64 117.426 1946.88 117.134C1947.62 117.125 1948.36 117.116 1949.12 117.107ZM1903.63 226.262C1905.16 216.53 1896.15 207.859 1886.36 209.955L1885.89 210.062L1884.09 210.518C1875.08 212.828 1866.33 215.598 1857.97 218.809C1853.61 220.485 1850.53 224.239 1849.67 228.739L1849.59 229.177V229.177L1818.61 425.284L1806.44 424.678L1805.9 424.661C1794.45 424.503 1788.06 437.453 1795.2 446.794L1825.72 486.707C1830.72 493.251 1840.1 494.428 1846.15 489.27L1888.71 453.005V453.004C1898.25 444.877 1892.32 428.97 1879.53 428.327L1871.77 427.936L1883.51 353.614C1885.06 354.568 1886.49 355.492 1887.87 356.465V356.464C1906.53 369.664 1927.9 370.416 1946.02 370.363H1946.08C1949.06 370.341 1951.99 370.32 1954.91 370.323C1964.08 370.341 1974.86 370.563 1985.64 368.541L1985.8 368.51L1985.97 368.474C1986.69 368.318 1987.39 368.165 1988.09 368.013C1991.25 367.366 1994.33 366.638 1997.27 365.927L1997.28 365.924L1997.29 365.922C1998.12 365.72 1998.93 365.523 1999.73 365.327C2006.44 363.888 2013.45 361.711 2020.15 358.131L2031.24 428.405L2023.49 428.795C2010.7 429.437 2004.76 445.345 2014.3 453.472L2056.86 489.742L2056.86 489.743C2062.91 494.899 2072.29 493.724 2077.29 487.18V487.179L2107.81 447.267C2114.95 437.927 2108.56 424.977 2097.12 425.135L2096.57 425.151L2084.41 425.757L2053.43 229.648L2053.36 229.211C2052.5 224.718 2049.42 220.957 2045.06 219.279H2045.06C2036.14 215.853 2026.78 212.93 2017.13 210.531H2017.13C2007.16 208.053 1997.84 216.848 1999.4 226.732L2008.52 284.512C2003.33 282.315 1998.54 280.186 1993.95 277.681H1993.96C1991.29 276.225 1988.63 274.826 1986.04 273.471L1986.02 273.464L1986.01 273.456L1984.05 272.441C1982.8 271.794 1981.55 271.151 1980.3 270.512L1980.21 270.468L1980.12 270.424L1978.94 269.861C1973.05 267.107 1967.08 265.279 1960.64 264.91C1953.75 264.515 1947.15 265.837 1940.39 268.332L1940.38 268.336C1939.74 268.571 1939.12 268.801 1938.51 269.03V269.031C1934.68 270.424 1930.56 272.019 1926.41 274.12L1926.35 274.151C1923.66 275.531 1920.89 276.823 1917.99 278.108C1916.66 278.692 1915.33 279.276 1914.01 279.861L1914.01 279.862C1913.28 280.184 1912.58 280.49 1911.87 280.802C1909.75 281.74 1907.6 282.692 1905.45 283.664L1905.44 283.67L1905.43 283.675C1901.39 285.508 1897.55 287.247 1893.74 288.838L1903.63 226.263L1903.63 226.262ZM2011.29 224.447C2011.07 223.027 2012.4 221.795 2013.8 222.142C2023.01 224.432 2031.92 227.215 2040.35 230.458C2040.99 230.702 2041.43 231.262 2041.54 231.934L2073.86 436.527L2073.89 436.707C2074.1 437.526 2074.82 438.104 2075.68 438.139L2075.86 438.138L2096.72 437.099C2098.41 437.016 2099.37 438.904 2098.33 440.26L2067.81 480.172L2067.67 480.338C2066.93 481.124 2065.7 481.227 2064.89 480.537L2022.33 444.268C2020.97 443.108 2021.81 440.835 2023.64 440.743L2042.96 439.773C2044.18 439.712 2045.11 438.592 2044.92 437.402L2031.49 352.374C2036.87 349.327 2041.86 344.944 2045.46 338.312L2045.69 337.886L2045.89 337.442C2047.51 333.786 2048.63 329.944 2048.84 325.706C2049.06 321.481 2048.32 317.558 2047.12 313.787L2046.95 313.255L2046.73 312.74L2045.95 310.887C2044.07 306.49 2041.71 301.621 2036.05 297.493C2032.63 294.995 2027.89 292.736 2021.65 290.05L2011.29 224.447ZM1889.22 221.675C1890.62 221.327 1891.96 222.557 1891.73 223.977L1880.71 293.721C1876.48 295.351 1871.31 297.8 1867.17 301.721L1865.92 302.907L1865.06 304.397C1861.88 309.853 1859.84 315.647 1860.89 323.492L1860.99 324.2L1861.17 324.892C1862.61 330.481 1864.74 335.63 1868.09 340.31C1869.44 342.192 1870.92 343.909 1872.54 345.497L1858.09 436.931C1857.91 438.122 1858.83 439.242 1860.05 439.303L1879.37 440.274C1881.2 440.366 1882.04 442.638 1880.68 443.799L1838.12 480.065C1837.31 480.756 1836.08 480.651 1835.34 479.865L1835.2 479.699L1804.69 439.787C1803.65 438.431 1804.61 436.543 1806.29 436.627L1827.15 437.667L1827.34 437.668C1828.19 437.632 1828.91 437.054 1829.12 436.235L1829.16 436.055L1861.49 231.464C1861.59 230.833 1861.99 230.303 1862.56 230.038L1862.68 229.988C1871.11 226.746 1880.02 223.964 1889.22 221.675ZM1944.55 279.589C1955.83 275.422 1964.24 276.021 1974.85 281.206C1976.08 281.83 1977.3 282.459 1978.52 283.094L1980.48 284.108L1984.35 286.14C1985.64 286.822 1986.92 287.512 1988.2 288.211L1989.42 288.866C1995.53 292.106 2001.87 294.75 2008.26 297.42C2009.12 297.778 2009.94 298.122 2010.72 298.455L2018.13 345.346L2017.02 345.978L2014.65 347.463C2009.13 350.44 2003.14 352.338 1997.03 353.636C1996.18 353.842 1995.33 354.049 1994.45 354.262L1992.24 354.794C1990.02 355.319 1987.81 355.825 1985.57 356.281C1984.86 356.435 1984.16 356.589 1983.43 356.747L1982.54 356.907C1973.4 358.505 1964.19 358.341 1954.93 358.323C1951.95 358.32 1948.97 358.341 1945.99 358.363L1944.29 358.365C1926.74 358.346 1909.55 357.115 1894.77 346.646C1892.26 344.879 1889.69 343.306 1887.05 341.731C1886.53 341.399 1886.03 341.063 1885.54 340.724L1891.57 302.598C1897.97 300.229 1904.17 297.426 1910.39 294.6C1911.44 294.125 1912.5 293.653 1913.55 293.183L1916.72 291.781C1917.42 291.471 1918.13 291.159 1918.85 290.84L1922.85 289.081C1925.5 287.904 1928.12 286.691 1930.72 285.389L1931.83 284.826C1935.35 283.041 1938.96 281.633 1942.67 280.283C1943.29 280.054 1943.91 279.825 1944.55 279.589ZM2023.89 304.245C2031.73 308.105 2032.67 310.315 2035.69 317.427C2037.48 323.043 2037.28 327.243 2034.92 332.583L2034.58 333.179C2033.16 335.633 2031.42 337.632 2029.43 339.295L2023.89 304.245ZM1875.18 328.736C1874.22 326.674 1873.44 324.412 1872.79 321.891C1872.19 317.427 1873.17 314.32 1875.43 310.428C1876.36 309.544 1877.38 308.776 1878.44 308.094L1875.18 328.736Z" fill="#006492"/>
<path d="M1891.73 222.959C1891.95 221.539 1890.62 220.308 1889.22 220.656C1880.02 222.945 1871.11 225.728 1862.67 228.971C1862.04 229.215 1861.59 229.773 1861.48 230.446L1829.17 435.04C1829.02 436.014 1828.16 436.699 1827.16 436.65L1806.3 435.612C1804.62 435.528 1803.66 437.415 1804.7 438.771L1835.22 478.683C1835.93 479.618 1837.27 479.786 1838.13 479.049L1880.69 442.781C1882.06 441.62 1881.21 439.347 1879.38 439.255L1860.06 438.285C1858.84 438.224 1857.92 437.104 1858.1 435.913L1891.73 222.959Z" fill="#FFD843"/>
<path d="M2011.29 223.431C2011.06 222.011 2012.4 220.779 2013.8 221.127C2023 223.416 2031.91 226.199 2040.35 229.442C2040.98 229.686 2041.43 230.246 2041.53 230.918L2073.85 435.511C2074 436.485 2074.86 437.172 2075.86 437.122L2096.72 436.083C2098.4 435.999 2099.36 437.887 2098.32 439.243L2067.8 479.155C2067.09 480.09 2065.75 480.258 2064.88 479.521L2022.32 443.252C2020.96 442.092 2021.81 439.819 2023.64 439.727L2042.96 438.757C2044.18 438.696 2045.1 437.576 2044.91 436.385L2011.29 223.431Z" fill="#FFD843"/>
<path d="M1944.54 279.602C1955.82 275.436 1964.23 276.035 1974.84 281.219C1976.07 281.843 1977.29 282.473 1978.51 283.107C1979.48 283.609 1979.48 283.61 1980.47 284.122C1983.05 285.471 1985.63 286.825 1988.18 288.223C1994.67 291.767 2001.44 294.586 2008.25 297.433C2010.03 298.18 2011.67 298.871 2013.18 299.511L2020.27 344.389C2019.86 344.541 2019.46 344.688 2019.04 344.831L2017.01 345.991L2014.64 347.476C2009.12 350.454 2003.13 352.351 1997.02 353.649C1996.17 353.856 1995.32 354.063 1994.44 354.276C1991.48 354.991 1988.54 355.685 1985.56 356.294C1984.85 356.447 1984.14 356.601 1983.41 356.76C1973.98 358.529 1964.48 358.354 1954.91 358.336C1951.93 358.333 1948.96 358.354 1945.98 358.377C1927.83 358.429 1910.01 357.467 1894.76 346.66C1892.25 344.893 1889.68 343.32 1887.04 341.745C1885.76 340.925 1884.58 340.085 1883.49 339.217L1889.13 303.479C1889.69 303.284 1890.25 303.09 1890.8 302.891C1897.48 300.465 1903.91 297.551 1910.38 294.614C1912.48 293.663 1914.59 292.726 1916.71 291.794C1917.41 291.483 1918.12 291.173 1918.84 290.853C1920.17 290.266 1921.5 289.679 1922.83 289.094C1925.87 287.749 1928.86 286.357 1931.82 284.84C1935.34 283.055 1938.95 281.646 1942.66 280.297C1943.28 280.068 1943.9 279.838 1944.54 279.602Z" fill="#FFD843"/>
</svg>
