<?xml version="1.0" encoding="UTF-8"?>
<svg id="Layer_1" xmlns="http://www.w3.org/2000/svg" xmlns:serif="http://www.serif.com/" version="1.1" viewBox="0 0 2350.05 680">
  <!-- Generator: Adobe Illustrator 29.8.2, SVG Export Plug-In . SVG Version: 2.1.1 Build 3)  -->
  <defs>
    <style>
      .st0 {
        fill: none;
      }

      .st1, .st2 {
        fill: #006492;
      }

      .st2, .st3 {
        fill-rule: evenodd;
      }

      .st4, .st3 {
        fill: #ffd843;
      }
    </style>
  </defs>
  <g id="PhotonVision-Header-onWhite">
    <rect class="st0" x="430.05" width="1920" height="680"/>
    <g>
      <path class="st1" d="M707.31,565.63c-7.56,0-14.28-1.96-20.16-5.6-5.88-3.64-10.64-9.8-13.72-17.92l-61.33-175.86h36.97l52.09,162.14c.84,1.96,1.68,3.36,2.52,4.2.84,1.12,2.24,1.68,3.64,1.68s2.8-.56,3.92-1.68c.84-.84,1.68-2.24,2.24-4.2l53.77-162.14h35.28l-61.33,175.86c-2.8,7.84-7.28,13.72-13.44,17.64-5.88,3.92-12.88,5.88-20.44,5.88Z"/>
      <path class="st1" d="M817.36,562.27v-29.4h36.4v-137.22h-36.4v-29.4h106.41v29.4h-36.4v137.22h36.4v29.4h-106.41Z"/>
      <path class="st1" d="M958.23,562.27v-29.4h84.29c5.32,0,10.08-1.4,14.28-3.92,3.92-2.52,7-6.16,9.52-10.36,2.24-4.2,3.36-8.4,3.36-13.16,0-5.04-1.12-9.52-3.36-13.72-2.24-4.2-5.32-7.28-9.24-9.8-4.2-2.52-8.68-3.64-14-3.64h-35c-10.92,0-21-2.24-29.68-7-8.4-4.48-15.4-10.92-20.44-19.04-5.04-8.12-7.56-17.92-7.56-29.12s2.52-21,7.28-29.68c4.76-8.4,11.48-15.12,19.88-19.88,8.4-4.76,17.92-7.28,28.56-7.28h84.29v29.4h-81.21c-4.76,0-9.24,1.12-13.16,3.64s-7,5.6-9.24,9.52c-1.96,3.92-3.08,8.12-3.08,12.6,0,4.76,1.12,8.96,3.08,12.6,2.24,3.92,5.32,7,8.96,9.24,3.92,2.52,8.4,3.64,13.16,3.64h35.84c12.04,0,22.4,2.24,31.08,7,8.68,4.76,15.4,11.2,20.16,19.32,4.76,8.12,7,17.64,7,28.28,0,12.6-2.52,23.24-7.28,32.2-5.04,9.24-11.76,16.24-20.16,21-8.68,5.04-18.2,7.56-28.84,7.56h-88.49Z"/>
      <path class="st1" d="M1128.49,562.27v-29.4h36.4v-137.22h-36.4v-29.4h106.41v29.4h-36.4v137.22h36.4v29.4h-106.41Z"/>
      <path class="st1" d="M1361.75,565.91c-15.4,0-29.4-2.8-42.01-8.12-12.88-5.32-23.52-12.6-32.2-21.84-8.96-9.24-15.96-20.16-20.72-32.48-4.76-12.32-7.28-25.48-7.28-39.49s2.52-27.16,7.28-39.49c4.76-12.04,11.76-22.96,20.72-32.2,8.68-9.24,19.32-16.52,32.2-21.84,12.6-5.32,26.6-7.84,42.29-7.84s29.4,2.52,42.01,7.84c12.6,5.32,23.24,12.6,32.2,21.84s15.96,20.16,20.72,32.2c4.76,12.32,7.28,25.48,7.28,39.49s-2.52,27.16-7.28,39.49c-4.76,12.32-11.76,23.24-20.72,32.48-8.96,9.24-19.6,16.52-32.2,21.84-12.6,5.32-26.6,8.12-42.29,8.12ZM1361.75,536.23c9.8,0,19.04-1.68,27.44-5.32,8.4-3.64,15.68-8.68,22.12-15.4,6.16-6.44,10.92-14.28,14.28-22.96,3.36-8.68,5.04-18.2,5.04-28.56s-1.68-19.88-5.04-28.56c-3.36-8.68-8.12-16.24-14.28-22.96-6.44-6.44-13.72-11.48-22.12-15.12-8.4-3.64-17.64-5.32-27.44-5.32s-18.76,1.68-27.16,5.32-15.68,8.68-21.84,15.12c-6.44,6.72-11.2,14.28-14.84,22.96-3.36,8.68-5.04,18.2-5.04,28.56s1.68,19.88,5.04,28.56c3.64,8.68,8.4,16.52,14.84,22.96,6.16,6.72,13.44,11.76,21.84,15.4,8.4,3.64,17.36,5.32,27.16,5.32Z"/>
      <path class="st1" d="M1493.65,562.27v-119.3c0-16.52,3.36-30.8,10.36-42.85,6.72-12.04,15.96-21.28,28-27.72s25.76-9.52,41.17-9.52,29.12,3.08,41.17,9.52c12.04,6.44,21.28,15.68,28.28,27.72,7,12.04,10.36,26.32,10.36,42.85v119.3h-33.6v-122.1c0-8.68-1.96-16.8-5.6-24.08-3.64-7.28-8.96-13.16-15.68-17.36-7-4.2-15.12-6.44-24.92-6.44-9.24,0-17.36,2.24-24.36,6.44s-12.32,10.08-15.96,17.36c-3.92,7.28-5.88,15.4-5.88,24.08v122.1h-33.32Z"/>
    </g>
    <path class="st2" d="M2004.73,488.77c-7.08,9.96-14.92,19.29-23.48,27.85-75.84,75.84-180.52,62.71-233.66-29.29-53.12-92.01-34.67-228.28,41.17-304.12,75.84-75.84,180.54-62.71,233.66,29.29,4.12,7.16,7.82,14.56,11.09,22.22l-51.42,8.83c-39.86-62.09-113.66-69.57-167.54-15.67-55.53,55.51-69.03,155.27-30.13,222.63,38.88,67.35,115.54,76.96,171.05,21.45l.18-.19,49.08,17ZM2048.98,287.65c8.63,50.4,2.34,104.79-17.44,152.42l-43.33-15.01c18.97-39.66,24.57-87.05,15.11-129.56l45.67-7.85Z"/>
    <path class="st3" d="M1785.47,369.49l301.94,104.54,8.26-23.86,45.22,56.77-70.64,16.63,8.25-23.85-288.24-99.81c-2.63-9.85-4.21-20.08-4.8-30.42ZM1801.25,288.62l291.71-50.12-4.27-24.88,67,27.9-53.84,48.67-4.29-24.88-307,52.73c2.62-10.17,6.19-20.06,10.69-29.42Z"/>
  </g>
  <g>
    <path class="st4" d="M219.65,319.23v-181.63h61.23c19.37,0,36.15,3.89,50.34,11.68,14.18,7.78,25.21,18.51,33.08,32.17,7.87,13.67,11.81,29.32,11.81,46.96s-3.94,33.3-11.81,46.96c-7.87,13.67-18.9,24.39-33.08,32.17-14.19,7.78-30.96,11.68-50.34,11.68h-61.23ZM256.75,286.54h24.13c11.24,0,21.23-2.34,29.97-7.01,8.73-4.67,15.61-11.37,20.63-20.11,5.02-8.73,7.52-19.07,7.52-31.01s-2.51-22.48-7.52-31.14c-5.02-8.65-11.89-15.31-20.63-19.98-8.74-4.67-18.73-7.01-29.97-7.01h-24.13v116.24Z"/>
    <path class="st4" d="M376.11,319.23l59.16-161.39c2.94-7.78,7.57-13.62,13.88-17.51,6.31-3.89,13.45-5.84,21.41-5.84s15.13,1.86,21.54,5.58c6.4,3.72,10.98,9.56,13.75,17.51l59.42,161.65h-40.74l-12.2-36.58h-84.59l-12.71,36.58h-38.92ZM438.9,249.96h62.53l-26.21-79.66c-.35-1.21-.91-2.08-1.69-2.59s-1.69-.78-2.72-.78-1.91.3-2.59.91c-.69.61-1.21,1.43-1.56,2.46l-27.76,79.66Z"/>
    <path class="st4" d="M653.73,322.35c-14.7,0-27.72-3.03-39.05-9.08-11.33-6.05-20.24-14.66-26.73-25.82-6.49-11.16-9.73-24.43-9.73-39.83v-110.01h37.1v112.35c0,7.27,1.56,13.88,4.67,19.85,3.11,5.97,7.56,10.77,13.36,14.4,5.79,3.63,12.67,5.45,20.63,5.45s14.53-1.82,20.24-5.45c5.71-3.63,10.12-8.43,13.23-14.4,3.11-5.97,4.67-12.58,4.67-19.85v-112.35h37.1v110.01c0,15.4-3.24,28.67-9.73,39.83-6.49,11.16-15.4,19.76-26.73,25.82-11.33,6.05-24.35,9.08-39.05,9.08Z"/>
    <path class="st4" d="M1028.98,319.23c-10.73,0-20.15-2.46-28.28-7.4-8.13-4.93-14.45-11.5-18.94-19.72-4.5-8.21-6.75-17.25-6.75-27.11v-94.71h-50.6v-32.69h138.3v32.69h-50.6v99.12c0,4.67,1.64,8.69,4.93,12.07,3.28,3.37,7.27,5.06,11.94,5.06h12.97v32.69h-12.97Z"/>
    <path class="st4" d="M1135.62,319.23c-10.73,0-20.15-2.46-28.28-7.4-8.13-4.93-14.45-11.5-18.94-19.72-4.5-8.21-6.75-17.25-6.75-27.11v-127.4h37.1v131.81c0,4.67,1.64,8.69,4.93,12.07,3.28,3.37,7.26,5.06,11.94,5.06h48v32.69h-48Z"/>
    <path class="st4" d="M1253.42,319.23c-10.03,0-19.16-2.42-27.37-7.27-8.22-4.84-14.75-11.37-19.59-19.59-4.84-8.21-7.26-17.34-7.26-27.37,0-7.27,1.56-14.1,4.67-20.5,3.11-6.4,7.35-12.02,12.71-16.87-5.36-4.84-9.6-10.46-12.71-16.87-3.11-6.4-4.67-13.14-4.67-20.24,0-9.86,2.38-18.77,7.13-26.73,4.76-7.95,11.16-14.31,19.2-19.07,8.04-4.76,16.91-7.14,26.59-7.14h74.73v32.69h-70.57c-3.63,0-6.97.91-9.99,2.72-3.03,1.82-5.45,4.24-7.26,7.27-1.82,3.03-2.72,6.45-2.72,10.25s.91,6.97,2.72,9.99c1.82,3.03,4.24,5.45,7.26,7.26,3.02,1.82,6.36,2.72,9.99,2.72h61.75v32.69h-60.2c-3.98,0-7.61,1-10.9,2.98-3.29,1.99-5.88,4.63-7.78,7.91-1.91,3.29-2.85,6.92-2.85,10.9s.95,7.61,2.85,10.9c1.9,3.29,4.5,5.88,7.78,7.78,3.28,1.91,6.92,2.85,10.9,2.85h69.02v32.69h-73.43Z"/>
    <path class="st4" d="M1355.13,319.23v-32.69h77.84c3.8,0,7.27-.95,10.38-2.85,3.11-1.9,5.62-4.45,7.52-7.65,1.9-3.2,2.85-6.7,2.85-10.51s-.95-7.56-2.85-10.77c-1.91-3.2-4.41-5.75-7.52-7.65-3.11-1.9-6.58-2.85-10.38-2.85h-30.36c-10.21,0-19.46-2.08-27.76-6.23-8.3-4.15-14.92-10.16-19.85-18.03-4.93-7.87-7.39-17.34-7.39-28.41s2.33-20.37,7.01-28.41c4.67-8.04,10.98-14.31,18.94-18.81,7.95-4.5,16.78-6.75,26.47-6.75h78.88v32.69h-75.25c-3.46,0-6.66.91-9.6,2.72-2.94,1.82-5.23,4.2-6.88,7.14-1.65,2.94-2.46,6.23-2.46,9.86s.82,6.92,2.46,9.86c1.64,2.94,3.93,5.28,6.88,7.01,2.94,1.73,6.14,2.59,9.6,2.59h31.4c11.24,0,21.02,2.17,29.32,6.49,8.3,4.33,14.75,10.38,19.33,18.16,4.58,7.78,6.88,16.87,6.88,27.24,0,12.28-2.38,22.75-7.13,31.4-4.76,8.65-11.16,15.22-19.2,19.72-8.04,4.5-16.91,6.75-26.59,6.75h-82.51Z"/>
    <path class="st4" d="M1517.55,319.23v-32.69h77.84c3.8,0,7.27-.95,10.38-2.85,3.11-1.9,5.62-4.45,7.52-7.65,1.9-3.2,2.85-6.7,2.85-10.51s-.95-7.56-2.85-10.77c-1.91-3.2-4.41-5.75-7.52-7.65-3.11-1.9-6.58-2.85-10.38-2.85h-30.36c-10.21,0-19.46-2.08-27.76-6.23-8.3-4.15-14.92-10.16-19.85-18.03-4.93-7.87-7.39-17.34-7.39-28.41s2.33-20.37,7.01-28.41c4.67-8.04,10.98-14.31,18.94-18.81,7.95-4.5,16.78-6.75,26.47-6.75h78.88v32.69h-75.25c-3.46,0-6.66.91-9.6,2.72-2.94,1.82-5.23,4.2-6.88,7.14-1.65,2.94-2.46,6.23-2.46,9.86s.82,6.92,2.46,9.86c1.64,2.94,3.93,5.28,6.88,7.01,2.94,1.73,6.14,2.59,9.6,2.59h31.4c11.24,0,21.02,2.17,29.32,6.49,8.3,4.33,14.75,10.38,19.33,18.16,4.58,7.78,6.88,16.87,6.88,27.24,0,12.28-2.38,22.75-7.13,31.4-4.76,8.65-11.16,15.22-19.2,19.72-8.04,4.5-16.91,6.75-26.59,6.75h-82.51Z"/>
    <path class="st4" d="M837.17,132.49c14.7,0,27.72,3.03,39.05,9.08,11.33,6.05,20.24,14.66,26.73,25.82,6.49,11.16,9.73,24.43,9.73,39.83v110.01h-37.1v-112.35c0-7.27-1.56-13.88-4.67-19.85-3.11-5.97-7.56-10.77-13.36-14.4-5.79-3.63-12.67-5.45-20.63-5.45s-14.53,1.82-20.24,5.45c-5.71,3.63-10.12,8.43-13.23,14.4-3.11,5.97-4.67,12.58-4.67,19.85v112.35h-37.1v-110.01c0-15.4,3.24-28.67,9.73-39.83,6.49-11.16,15.4-19.76,26.73-25.82,11.33-6.05,24.35-9.08,39.05-9.08Z"/>
  </g>
</svg>