<svg width="2351" height="680" viewBox="0 0 2351 680" fill="none" xmlns="http://www.w3.org/2000/svg">
<g clip-path="url(#clip0_5_2)">
<path d="M707.31 565.63C699.75 565.63 693.03 563.67 687.15 560.03C681.27 556.39 676.51 550.23 673.43 542.11L612.1 366.25H649.07L701.16 528.39C702 530.35 702.84 531.75 703.68 532.59C704.52 533.71 705.92 534.27 707.32 534.27C708.72 534.27 710.12 533.71 711.24 532.59C712.08 531.75 712.92 530.35 713.48 528.39L767.25 366.25H802.53L741.2 542.11C738.4 549.95 733.92 555.83 727.76 559.75C721.88 563.67 714.88 565.63 707.32 565.63H707.31Z" fill="#006492"/>
<path d="M817.36 562.27V532.87H853.76V395.65H817.36V366.25H923.77V395.65H887.37V532.87H923.77V562.27H817.36Z" fill="#006492"/>
<path d="M958.23 562.27V532.87H1042.52C1047.84 532.87 1052.6 531.47 1056.8 528.95C1060.72 526.43 1063.8 522.79 1066.32 518.59C1068.56 514.39 1069.68 510.19 1069.68 505.43C1069.68 500.39 1068.56 495.91 1066.32 491.71C1064.08 487.51 1061 484.43 1057.08 481.91C1052.88 479.39 1048.4 478.27 1043.08 478.27H1008.08C997.16 478.27 987.08 476.03 978.4 471.27C970 466.79 963 460.35 957.96 452.23C952.92 444.11 950.4 434.31 950.4 423.11C950.4 411.91 952.92 402.11 957.68 393.43C962.44 385.03 969.16 378.31 977.56 373.55C985.96 368.79 995.48 366.27 1006.12 366.27H1090.41V395.67H1009.2C1004.44 395.67 999.96 396.79 996.04 399.31C992.12 401.83 989.04 404.91 986.8 408.83C984.84 412.75 983.72 416.95 983.72 421.43C983.72 426.19 984.84 430.39 986.8 434.03C989.04 437.95 992.12 441.03 995.76 443.27C999.68 445.79 1004.16 446.91 1008.92 446.91H1044.76C1056.8 446.91 1067.16 449.15 1075.84 453.91C1084.52 458.67 1091.24 465.11 1096 473.23C1100.76 481.35 1103 490.87 1103 501.51C1103 514.11 1100.48 524.75 1095.72 533.71C1090.68 542.95 1083.96 549.95 1075.56 554.71C1066.88 559.75 1057.36 562.27 1046.72 562.27H958.23Z" fill="#006492"/>
<path d="M1128.49 562.27V532.87H1164.89V395.65H1128.49V366.25H1234.9V395.65H1198.5V532.87H1234.9V562.27H1128.49Z" fill="#006492"/>
<path d="M1361.75 565.91C1346.35 565.91 1332.35 563.11 1319.74 557.79C1306.86 552.47 1296.22 545.19 1287.54 535.95C1278.58 526.71 1271.58 515.79 1266.82 503.47C1262.06 491.15 1259.54 477.99 1259.54 463.98C1259.54 449.97 1262.06 436.82 1266.82 424.49C1271.58 412.45 1278.58 401.53 1287.54 392.29C1296.22 383.05 1306.86 375.77 1319.74 370.45C1332.34 365.13 1346.34 362.61 1362.03 362.61C1377.72 362.61 1391.43 365.13 1404.04 370.45C1416.64 375.77 1427.28 383.05 1436.24 392.29C1445.2 401.53 1452.2 412.45 1456.96 424.49C1461.72 436.81 1464.24 449.97 1464.24 463.98C1464.24 477.99 1461.72 491.14 1456.96 503.47C1452.2 515.79 1445.2 526.71 1436.24 535.95C1427.28 545.19 1416.64 552.47 1404.04 557.79C1391.44 563.11 1377.44 565.91 1361.75 565.91ZM1361.75 536.23C1371.55 536.23 1380.79 534.55 1389.19 530.91C1397.59 527.27 1404.87 522.23 1411.31 515.51C1417.47 509.07 1422.23 501.23 1425.59 492.55C1428.95 483.87 1430.63 474.35 1430.63 463.99C1430.63 453.63 1428.95 444.11 1425.59 435.43C1422.23 426.75 1417.47 419.19 1411.31 412.47C1404.87 406.03 1397.59 400.99 1389.19 397.35C1380.79 393.71 1371.55 392.03 1361.75 392.03C1351.95 392.03 1342.99 393.71 1334.59 397.35C1326.19 400.99 1318.91 406.03 1312.75 412.47C1306.31 419.19 1301.55 426.75 1297.91 435.43C1294.55 444.11 1292.87 453.63 1292.87 463.99C1292.87 474.35 1294.55 483.87 1297.91 492.55C1301.55 501.23 1306.31 509.07 1312.75 515.51C1318.91 522.23 1326.19 527.27 1334.59 530.91C1342.99 534.55 1351.95 536.23 1361.75 536.23Z" fill="#006492"/>
<path d="M1493.65 562.27V442.97C1493.65 426.45 1497.01 412.17 1504.01 400.12C1510.73 388.08 1519.97 378.84 1532.01 372.4C1544.05 365.96 1557.77 362.88 1573.18 362.88C1588.59 362.88 1602.3 365.96 1614.35 372.4C1626.39 378.84 1635.63 388.08 1642.63 400.12C1649.63 412.16 1652.99 426.44 1652.99 442.97V562.27H1619.39V440.17C1619.39 431.49 1617.43 423.37 1613.79 416.09C1610.15 408.81 1604.83 402.93 1598.11 398.73C1591.11 394.53 1582.99 392.29 1573.19 392.29C1563.95 392.29 1555.83 394.53 1548.83 398.73C1541.83 402.93 1536.51 408.81 1532.87 416.09C1528.95 423.37 1526.99 431.49 1526.99 440.17V562.27H1493.67H1493.65Z" fill="#006492"/>
<mask id="mask0_5_2" style="mask-type:luminance" maskUnits="userSpaceOnUse" x="1628" y="58" width="733" height="583">
<path d="M2360.19 58.1834H1628V640.183H2360.19V58.1834Z" fill="white"/>
</mask>
<g mask="url(#mask0_5_2)">
<path d="M1875.72 142.88C1898.98 144.278 1919.87 149.671 1938.38 159.077C1956.89 168.485 1972.29 181.854 1984.56 199.17C1990.97 207.769 1996.48 217.418 2001.09 228.114L1955.06 236.721C1952.33 231.528 1949.23 226.716 1945.75 222.285C1937.22 211.409 1926.78 203.014 1914.42 197.091L1914.41 197.085L1914.4 197.08C1902.05 190.785 1888.3 187.176 1873.11 186.263L1793.93 181.504C1793.92 181.561 1793.91 181.62 1793.9 181.681C1793.79 182.383 1793.62 183.423 1793.41 184.765C1792.98 187.45 1792.36 191.354 1791.61 196.225C1790.11 205.969 1788.08 219.587 1785.93 235.081C1781.63 266.075 1776.88 304.55 1775.08 334.541C1773.27 364.531 1773.4 402.892 1773.99 433.773C1774.28 449.209 1774.68 462.77 1775.01 472.471C1775.18 477.322 1775.33 481.208 1775.43 483.88C1775.48 485.216 1775.53 486.249 1775.56 486.948C1775.56 487.004 1775.56 487.059 1775.56 487.111L1854.75 491.87C1869.94 492.783 1884.02 491.03 1897.02 486.626C1910.02 481.853 1921.41 474.581 1931.18 464.806C1934.54 461.444 1937.67 457.803 1940.57 453.883L1984.16 470.313C1978.97 478.624 1973.22 486.173 1966.91 492.953L1966.91 492.952C1952.67 508.307 1935.79 519.552 1916.29 526.675C1896.78 533.797 1875.4 536.65 1852.14 535.252L1726.3 527.69L1726.27 526.784L1727.27 526.746C1726.33 526.78 1726.27 526.782 1726.27 526.782C1726.27 526.781 1726.27 526.78 1726.27 526.778C1726.27 526.774 1726.27 526.769 1726.27 526.762C1726.27 526.748 1726.27 526.727 1726.27 526.699C1726.26 526.643 1726.26 526.558 1726.26 526.447C1726.25 526.224 1726.24 525.893 1726.22 525.459C1726.19 524.588 1726.14 523.302 1726.09 521.638C1725.98 518.311 1725.83 513.471 1725.66 507.427C1725.33 495.34 1724.93 478.429 1724.68 459.136C1724.17 420.555 1724.23 372.421 1726.52 334.27C1728.82 296.12 1734.62 246.601 1739.85 206.635C1742.47 186.65 1744.94 169.047 1746.76 156.44C1747.67 150.137 1748.41 145.082 1748.93 141.603C1749.19 139.864 1749.39 138.517 1749.53 137.606C1749.6 137.151 1749.65 136.805 1749.68 136.572C1749.7 136.456 1749.72 136.367 1749.73 136.308C1749.73 136.279 1749.73 136.256 1749.74 136.241C1749.74 136.234 1749.74 136.228 1749.74 136.224C1749.74 136.223 1749.74 136.222 1749.74 136.221C1749.75 136.221 1749.83 136.232 1750.71 136.367L1749.74 136.219L1749.88 135.317L1875.72 142.88ZM2001.71 433.619C1998.71 441.94 1995.34 449.765 1991.61 457.093L1948.74 440.936C1950.88 436.973 1952.83 432.793 1954.6 428.393L1954.61 428.379C1956.09 424.839 1957.42 421.172 1958.61 417.379L2001.71 433.619ZM2015.64 282.075C2018.42 302.006 2019.08 324.084 2017.63 348.303C2016.04 374.675 2012.26 398.347 2006.28 419.312L1962.38 402.767C1964.03 394.723 1965.12 386.193 1965.66 377.174L1969.5 313.417C1969.97 305.489 1969.98 297.917 1969.51 290.699L2015.64 282.075ZM2006.51 242.363C2008.62 248.719 2010.46 255.388 2012.04 262.372H2012.04C2012.41 263.994 2012.76 265.633 2013.1 267.289L1967.79 275.759C1966.98 270.931 1965.92 266.285 1964.62 261.822L1964.61 261.808L1964.61 261.793C1963.62 258 1962.49 254.345 1961.23 250.829L2006.51 242.363Z" fill="#006492"/>
<path d="M1795.45 354.913L2057.82 453.7L2064.71 432.07L2065.31 430.196L2066.47 431.783L2105.91 485.633L2106.79 486.825L2105.35 487.192L2043.74 502.969L2042 503.416L2042.54 501.697L2049.45 479.981L1798.94 385.644L1798.45 385.459L1798.32 384.947C1796.01 375.542 1794.62 365.776 1794.1 355.901L1794.02 354.374L1795.45 354.913ZM2059.98 207.089L2118.41 233.551L2119.74 234.152L2118.7 235.175L2071.74 281.34L2070.36 282.701L2070.05 280.783L2066.47 258.197L1799.72 308.03L1798.21 308.312L1798.56 306.816C1800.86 297.111 1804 287.671 1807.94 278.736L1808.16 278.254L1808.67 278.157L2062.15 230.796L2058.58 208.156L2058.29 206.324L2059.98 207.089Z" fill="#FFD843" stroke="#FFD843" stroke-width="2"/>
</g>
<path d="M219.65 319.23V137.6H280.88C300.25 137.6 317.03 141.49 331.22 149.28C345.4 157.06 356.43 167.79 364.3 181.45C372.17 195.12 376.11 210.77 376.11 228.41C376.11 246.05 372.17 261.71 364.3 275.37C356.43 289.04 345.4 299.76 331.22 307.54C317.03 315.32 300.26 319.22 280.88 319.22H219.65V319.23ZM256.75 286.54H280.88C292.12 286.54 302.11 284.2 310.85 279.53C319.58 274.86 326.46 268.16 331.48 259.42C336.5 250.69 339 240.35 339 228.41C339 216.47 336.49 205.93 331.48 197.27C326.46 188.62 319.59 181.96 310.85 177.29C302.11 172.62 292.12 170.28 280.88 170.28H256.75V286.52V286.54Z" fill="#FFD843"/>
<path d="M376.11 319.23L435.27 157.84C438.21 150.06 442.84 144.22 449.15 140.33C455.46 136.44 462.6 134.49 470.56 134.49C478.52 134.49 485.69 136.35 492.1 140.07C498.5 143.79 503.08 149.63 505.85 157.58L565.27 319.23H524.53L512.33 282.65H427.74L415.03 319.23H376.11ZM438.9 249.96H501.43L475.22 170.3C474.87 169.09 474.31 168.22 473.53 167.71C472.75 167.2 471.84 166.93 470.81 166.93C469.78 166.93 468.9 167.23 468.22 167.84C467.53 168.45 467.01 169.27 466.66 170.3L438.9 249.96Z" fill="#FFD843"/>
<path d="M653.73 322.35C639.03 322.35 626.01 319.32 614.68 313.27C603.35 307.22 594.44 298.61 587.95 287.45C581.46 276.29 578.22 263.02 578.22 247.62V137.61H615.32V249.96C615.32 257.23 616.88 263.84 619.99 269.81C623.1 275.78 627.55 280.58 633.35 284.21C639.14 287.84 646.02 289.66 653.98 289.66C661.94 289.66 668.51 287.84 674.22 284.21C679.93 280.58 684.34 275.78 687.45 269.81C690.56 263.84 692.12 257.23 692.12 249.96V137.61H729.22V247.62C729.22 263.02 725.98 276.29 719.49 287.45C713 298.61 704.09 307.21 692.76 313.27C681.43 319.32 668.41 322.35 653.71 322.35H653.73Z" fill="#FFD843"/>
<path d="M1028.98 319.23C1018.25 319.23 1008.83 316.77 1000.7 311.83C992.57 306.9 986.25 300.33 981.76 292.11C977.26 283.9 975.01 274.86 975.01 265V170.29H924.41V137.6H1062.71V170.29H1012.11V269.41C1012.11 274.08 1013.75 278.1 1017.04 281.48C1020.32 284.85 1024.31 286.54 1028.98 286.54H1041.95V319.23H1028.98Z" fill="#FFD843"/>
<path d="M1135.62 319.23C1124.89 319.23 1115.47 316.77 1107.34 311.83C1099.21 306.9 1092.89 300.33 1088.4 292.11C1083.9 283.9 1081.65 274.86 1081.65 265V137.6H1118.75V269.41C1118.75 274.08 1120.39 278.1 1123.68 281.48C1126.96 284.85 1130.94 286.54 1135.62 286.54H1183.62V319.23H1135.62Z" fill="#FFD843"/>
<path d="M1253.42 319.23C1243.39 319.23 1234.26 316.81 1226.05 311.96C1217.83 307.12 1211.3 300.59 1206.46 292.37C1201.62 284.16 1199.2 275.03 1199.2 265C1199.2 257.73 1200.76 250.9 1203.87 244.5C1206.98 238.1 1211.22 232.48 1216.58 227.63C1211.22 222.79 1206.98 217.17 1203.87 210.76C1200.76 204.36 1199.2 197.62 1199.2 190.52C1199.2 180.66 1201.58 171.75 1206.33 163.79C1211.09 155.84 1217.49 149.48 1225.53 144.72C1233.57 139.96 1242.44 137.58 1252.12 137.58H1326.85V170.27H1256.28C1252.65 170.27 1249.31 171.18 1246.29 172.99C1243.26 174.81 1240.84 177.23 1239.03 180.26C1237.21 183.29 1236.31 186.71 1236.31 190.51C1236.31 194.31 1237.22 197.48 1239.03 200.5C1240.85 203.53 1243.27 205.95 1246.29 207.76C1249.31 209.58 1252.65 210.48 1256.28 210.48H1318.03V243.17H1257.83C1253.85 243.17 1250.22 244.17 1246.93 246.15C1243.64 248.14 1241.05 250.78 1239.15 254.06C1237.24 257.35 1236.3 260.98 1236.3 264.96C1236.3 268.94 1237.25 272.57 1239.15 275.86C1241.05 279.15 1243.65 281.74 1246.93 283.64C1250.21 285.55 1253.85 286.49 1257.83 286.49H1326.85V319.18H1253.42V319.23Z" fill="#FFD843"/>
<path d="M1355.13 319.23V286.54H1432.97C1436.77 286.54 1440.24 285.59 1443.35 283.69C1446.46 281.79 1448.97 279.24 1450.87 276.04C1452.77 272.84 1453.72 269.34 1453.72 265.53C1453.72 261.72 1452.77 257.97 1450.87 254.76C1448.96 251.56 1446.46 249.01 1443.35 247.11C1440.24 245.21 1436.77 244.26 1432.97 244.26H1402.61C1392.4 244.26 1383.15 242.18 1374.85 238.03C1366.55 233.88 1359.93 227.87 1355 220C1350.07 212.13 1347.61 202.66 1347.61 191.59C1347.61 180.52 1349.94 171.22 1354.62 163.18C1359.29 155.14 1365.6 148.87 1373.56 144.37C1381.51 139.87 1390.34 137.62 1400.03 137.62H1478.91V170.31H1403.66C1400.2 170.31 1397 171.22 1394.06 173.03C1391.12 174.85 1388.83 177.23 1387.18 180.17C1385.53 183.11 1384.72 186.4 1384.72 190.03C1384.72 193.66 1385.54 196.95 1387.18 199.89C1388.82 202.83 1391.11 205.17 1394.06 206.9C1397 208.63 1400.2 209.49 1403.66 209.49H1435.06C1446.3 209.49 1456.08 211.66 1464.38 215.98C1472.68 220.31 1479.13 226.36 1483.71 234.14C1488.29 241.92 1490.59 251.01 1490.59 261.38C1490.59 273.66 1488.21 284.13 1483.46 292.78C1478.7 301.43 1472.3 308 1464.26 312.5C1456.22 317 1447.35 319.25 1437.67 319.25H1355.16L1355.13 319.23Z" fill="#FFD843"/>
<path d="M1517.55 319.23V286.54H1595.39C1599.19 286.54 1602.66 285.59 1605.77 283.69C1608.88 281.79 1611.39 279.24 1613.29 276.04C1615.19 272.84 1616.14 269.34 1616.14 265.53C1616.14 261.72 1615.19 257.97 1613.29 254.76C1611.38 251.56 1608.88 249.01 1605.77 247.11C1602.66 245.21 1599.19 244.26 1595.39 244.26H1565.03C1554.82 244.26 1545.57 242.18 1537.27 238.03C1528.97 233.88 1522.35 227.87 1517.42 220C1512.49 212.13 1510.03 202.66 1510.03 191.59C1510.03 180.52 1512.36 171.22 1517.04 163.18C1521.71 155.14 1528.02 148.87 1535.98 144.37C1543.93 139.87 1552.76 137.62 1562.45 137.62H1641.33V170.31H1566.08C1562.62 170.31 1559.42 171.22 1556.48 173.03C1553.54 174.85 1551.25 177.23 1549.6 180.17C1547.95 183.11 1547.14 186.4 1547.14 190.03C1547.14 193.66 1547.96 196.95 1549.6 199.89C1551.24 202.83 1553.53 205.17 1556.48 206.9C1559.42 208.63 1562.62 209.49 1566.08 209.49H1597.48C1608.72 209.49 1618.5 211.66 1626.8 215.98C1635.1 220.31 1641.55 226.36 1646.13 234.14C1650.71 241.92 1653.01 251.01 1653.01 261.38C1653.01 273.66 1650.63 284.13 1645.88 292.78C1641.12 301.43 1634.72 308 1626.68 312.5C1618.64 317 1609.77 319.25 1600.09 319.25H1517.58L1517.55 319.23Z" fill="#FFD843"/>
<path d="M837.17 132.49C851.87 132.49 864.89 135.52 876.22 141.57C887.55 147.62 896.46 156.23 902.95 167.39C909.44 178.55 912.68 191.82 912.68 207.22V317.23H875.58V204.88C875.58 197.61 874.02 191 870.91 185.03C867.8 179.06 863.35 174.26 857.55 170.63C851.76 167 844.88 165.18 836.92 165.18C828.96 165.18 822.39 167 816.68 170.63C810.97 174.26 806.56 179.06 803.45 185.03C800.34 191 798.78 197.61 798.78 204.88V317.23H761.68V207.22C761.68 191.82 764.92 178.55 771.41 167.39C777.9 156.23 786.81 147.63 798.14 141.57C809.47 135.52 822.49 132.49 837.19 132.49H837.17Z" fill="#FFD843"/>
</g>
<defs>
<clipPath id="clip0_5_2">
<rect width="2350.05" height="680" fill="white"/>
</clipPath>
</defs>
</svg>
