<svg width="2351" height="680" viewBox="0 0 2351 680" fill="none" xmlns="http://www.w3.org/2000/svg">
<path d="M707.31 565.63C699.75 565.63 693.03 563.67 687.15 560.03C681.27 556.39 676.51 550.23 673.43 542.11L612.1 366.25H649.07L701.16 528.39C702 530.35 702.84 531.75 703.68 532.59C704.52 533.71 705.92 534.27 707.32 534.27C708.72 534.27 710.12 533.71 711.24 532.59C712.08 531.75 712.92 530.35 713.48 528.39L767.25 366.25H802.53L741.2 542.11C738.4 549.95 733.92 555.83 727.76 559.75C721.88 563.67 714.88 565.63 707.32 565.63H707.31Z" fill="#006492"/>
<path d="M817.36 562.27V532.87H853.76V395.65H817.36V366.25H923.77V395.65H887.37V532.87H923.77V562.27H817.36Z" fill="#006492"/>
<path d="M958.23 562.27V532.87H1042.52C1047.84 532.87 1052.6 531.47 1056.8 528.95C1060.72 526.43 1063.8 522.79 1066.32 518.59C1068.56 514.39 1069.68 510.19 1069.68 505.43C1069.68 500.39 1068.56 495.91 1066.32 491.71C1064.08 487.51 1061 484.43 1057.08 481.91C1052.88 479.39 1048.4 478.27 1043.08 478.27H1008.08C997.16 478.27 987.08 476.03 978.4 471.27C970 466.79 963 460.35 957.96 452.23C952.92 444.11 950.4 434.31 950.4 423.11C950.4 411.91 952.92 402.11 957.68 393.43C962.44 385.03 969.16 378.31 977.56 373.55C985.96 368.79 995.48 366.27 1006.12 366.27H1090.41V395.67H1009.2C1004.44 395.67 999.96 396.79 996.04 399.31C992.12 401.83 989.04 404.91 986.8 408.83C984.84 412.75 983.72 416.95 983.72 421.43C983.72 426.19 984.84 430.39 986.8 434.03C989.04 437.95 992.12 441.03 995.76 443.27C999.68 445.79 1004.16 446.91 1008.92 446.91H1044.76C1056.8 446.91 1067.16 449.15 1075.84 453.91C1084.52 458.67 1091.24 465.11 1096 473.23C1100.76 481.35 1103 490.87 1103 501.51C1103 514.11 1100.48 524.75 1095.72 533.71C1090.68 542.95 1083.96 549.95 1075.56 554.71C1066.88 559.75 1057.36 562.27 1046.72 562.27H958.23Z" fill="#006492"/>
<path d="M1128.49 562.27V532.87H1164.89V395.65H1128.49V366.25H1234.9V395.65H1198.5V532.87H1234.9V562.27H1128.49Z" fill="#006492"/>
<path d="M1361.75 565.91C1346.35 565.91 1332.35 563.11 1319.74 557.79C1306.86 552.47 1296.22 545.19 1287.54 535.95C1278.58 526.71 1271.58 515.79 1266.82 503.47C1262.06 491.15 1259.54 477.99 1259.54 463.98C1259.54 449.97 1262.06 436.82 1266.82 424.49C1271.58 412.45 1278.58 401.53 1287.54 392.29C1296.22 383.05 1306.86 375.77 1319.74 370.45C1332.34 365.13 1346.34 362.61 1362.03 362.61C1377.72 362.61 1391.43 365.13 1404.04 370.45C1416.64 375.77 1427.28 383.05 1436.24 392.29C1445.2 401.53 1452.2 412.45 1456.96 424.49C1461.72 436.81 1464.24 449.97 1464.24 463.98C1464.24 477.99 1461.72 491.14 1456.96 503.47C1452.2 515.79 1445.2 526.71 1436.24 535.95C1427.28 545.19 1416.64 552.47 1404.04 557.79C1391.44 563.11 1377.44 565.91 1361.75 565.91ZM1361.75 536.23C1371.55 536.23 1380.79 534.55 1389.19 530.91C1397.59 527.27 1404.87 522.23 1411.31 515.51C1417.47 509.07 1422.23 501.23 1425.59 492.55C1428.95 483.87 1430.63 474.35 1430.63 463.99C1430.63 453.63 1428.95 444.11 1425.59 435.43C1422.23 426.75 1417.47 419.19 1411.31 412.47C1404.87 406.03 1397.59 400.99 1389.19 397.35C1380.79 393.71 1371.55 392.03 1361.75 392.03C1351.95 392.03 1342.99 393.71 1334.59 397.35C1326.19 400.99 1318.91 406.03 1312.75 412.47C1306.31 419.19 1301.55 426.75 1297.91 435.43C1294.55 444.11 1292.87 453.63 1292.87 463.99C1292.87 474.35 1294.55 483.87 1297.91 492.55C1301.55 501.23 1306.31 509.07 1312.75 515.51C1318.91 522.23 1326.19 527.27 1334.59 530.91C1342.99 534.55 1351.95 536.23 1361.75 536.23Z" fill="#006492"/>
<path d="M1493.65 562.27V442.97C1493.65 426.45 1497.01 412.17 1504.01 400.12C1510.73 388.08 1519.97 378.84 1532.01 372.4C1544.05 365.96 1557.77 362.88 1573.18 362.88C1588.59 362.88 1602.3 365.96 1614.35 372.4C1626.39 378.84 1635.63 388.08 1642.63 400.12C1649.63 412.16 1652.99 426.44 1652.99 442.97V562.27H1619.39V440.17C1619.39 431.49 1617.43 423.37 1613.79 416.09C1610.15 408.81 1604.83 402.93 1598.11 398.73C1591.11 394.53 1582.99 392.29 1573.19 392.29C1563.95 392.29 1555.83 394.53 1548.83 398.73C1541.83 402.93 1536.51 408.81 1532.87 416.09C1528.95 423.37 1526.99 431.49 1526.99 440.17V562.27H1493.67H1493.65Z" fill="#006492"/>
<path d="M1821.1 147.996C1842.26 147.37 1862.75 148.734 1873.1 149.356C1894.04 150.615 1910.67 158.491 1927.11 167.33C1943.69 176.242 1957.27 189.105 1968.37 205.384C1974.52 214.403 1979.8 224.573 1984.14 235.884L1942.68 243.637C1940.02 237.77 1936.92 232.381 1933.34 227.518C1925.75 217.213 1916.41 209.609 1905.37 203.654C1894.24 197.647 1883.9 192.318 1869.1 188.951C1854.31 185.586 1831.85 183.271 1799.77 193.73C1792.07 196.239 1786.55 202.577 1782.59 211.788C1778.62 221.005 1776.26 232.97 1774.83 246.477C1771.98 273.528 1772.88 306.318 1771.78 335.056C1770.68 363.707 1769.19 396.323 1771 423.643C1771.9 437.303 1773.63 449.585 1776.61 459.357C1779.6 469.158 1783.81 476.257 1789.55 479.795C1813.43 494.524 1839.04 492.714 1854.17 489.819C1861.79 488.362 1865.63 487.557 1869.96 486.216C1874.32 484.868 1879.18 482.98 1888.82 479.33C1898.4 475.704 1903.83 472.824 1907.96 469.716C1912.11 466.593 1914.97 463.224 1919.46 458.458C1923.26 454.417 1926.7 449.988 1929.82 445.128L1969.14 459.948C1963.9 469.362 1958.02 477.766 1951.56 485.161C1938.58 500.005 1923.58 510.611 1906.07 517.469C1888.68 524.275 1862.56 532.142 1841.62 530.884C1836.46 530.574 1830.02 530.495 1822.85 530.295C1815.71 530.095 1807.87 529.776 1800.01 528.987C1784.34 527.414 1768.36 523.959 1757.41 515.684C1754.56 513.535 1752.06 510.166 1749.84 505.868C1747.62 501.561 1745.66 496.258 1743.93 490.172C1740.47 477.999 1737.91 462.59 1736.09 445.514C1732.43 411.354 1731.7 370.388 1732.65 334.99C1733.6 299.625 1734.99 259.362 1739.41 226.104C1741.62 209.478 1744.59 194.557 1748.66 182.854C1752.7 171.203 1757.91 162.517 1764.76 158.67C1771.41 154.931 1780.23 152.427 1789.99 150.774C1799.76 149.12 1810.53 148.309 1821.1 147.996ZM1984.32 424.317C1983.87 425.705 1983.43 427.078 1982.96 428.436C1980.82 434.753 1978.46 440.761 1975.89 446.462L1937.09 431.838C1938.3 429.231 1939.46 426.525 1940.55 423.713C1942.29 419.24 1943.83 414.518 1945.17 409.563L1984.32 424.317ZM1996.4 288.391C1998.4 306.279 1998.76 325.845 1997.47 347.261C1996.09 370.238 1993.07 391.169 1988.41 409.829L1948.39 394.749C1949.46 388.428 1950.22 381.807 1950.63 374.913L1954.28 314.195C1954.65 307.962 1954.72 301.979 1954.5 296.225L1996.4 288.391ZM1988.96 250.243C1990.38 255.134 1991.65 260.207 1992.76 265.462C1993.32 268.107 1993.83 270.795 1994.3 273.524L1953.21 281.206C1952.46 275.605 1951.41 270.235 1950.09 265.073C1949.46 262.625 1948.78 260.231 1948.06 257.892L1988.96 250.243Z" fill="#006492"/>
<path d="M1798.91 357.511C1798.8 356.072 1800.23 355.028 1801.58 355.536L2041.18 445.75C2042.25 446.153 2043.44 445.576 2043.79 444.485L2048.64 429.234C2049.14 427.676 2051.19 427.34 2052.16 428.659L2084.7 473.079C2085.53 474.221 2084.95 475.847 2083.58 476.198L2032.76 489.213C2031.24 489.602 2029.88 488.166 2030.36 486.669L2035.37 470.922C2035.69 469.908 2035.16 468.819 2034.17 468.444L1803.59 381.615C1802.97 381.383 1802.51 380.862 1802.36 380.221C1800.61 372.84 1799.47 365.222 1798.91 357.511ZM2044.75 220.898C2044.51 219.325 2046.1 218.107 2047.55 218.764L2095.76 240.591C2097.04 241.17 2097.34 242.854 2096.33 243.839L2057.6 281.919C2056.44 283.059 2054.47 282.412 2054.22 280.806L2051.68 264.767C2051.5 263.655 2050.44 262.908 2049.34 263.114L1805.85 308.599C1804.43 308.864 1803.21 307.58 1803.57 306.18C1805.52 298.621 1808.02 291.258 1811.06 284.228C1811.33 283.622 1811.87 283.19 1812.52 283.068L2045.72 239.496C2046.79 239.297 2047.5 238.287 2047.33 237.218L2044.75 220.898Z" fill="#FFD843"/>
<path d="M1798.91 357.511C1798.8 356.072 1800.23 355.028 1801.58 355.536L2041.18 445.75C2042.25 446.153 2043.44 445.576 2043.79 444.485L2048.64 429.234C2049.14 427.676 2051.19 427.34 2052.16 428.659L2084.7 473.079C2085.53 474.221 2084.95 475.847 2083.58 476.198L2032.76 489.213C2031.24 489.602 2029.88 488.166 2030.36 486.669L2035.37 470.922C2035.69 469.908 2035.16 468.819 2034.17 468.444L1803.59 381.615C1802.97 381.383 1802.51 380.862 1802.36 380.221C1800.61 372.84 1799.47 365.222 1798.91 357.511ZM2044.75 220.898C2044.51 219.325 2046.1 218.107 2047.55 218.764L2095.76 240.591C2097.04 241.17 2097.34 242.854 2096.33 243.839L2057.6 281.919C2056.44 283.059 2054.47 282.412 2054.22 280.806L2051.68 264.767C2051.5 263.655 2050.44 262.908 2049.34 263.114L1805.85 308.599C1804.43 308.864 1803.21 307.58 1803.57 306.18C1805.52 298.621 1808.02 291.258 1811.06 284.228C1811.33 283.622 1811.87 283.19 1812.52 283.068L2045.72 239.496C2046.79 239.297 2047.5 238.287 2047.33 237.218L2044.75 220.898Z" stroke="#FFD843"/>
<path d="M219.65 319.23V137.6H280.88C300.25 137.6 317.03 141.49 331.22 149.28C345.4 157.06 356.43 167.79 364.3 181.45C372.17 195.12 376.11 210.77 376.11 228.41C376.11 246.05 372.17 261.71 364.3 275.37C356.43 289.04 345.4 299.76 331.22 307.54C317.03 315.32 300.26 319.22 280.88 319.22H219.65V319.23ZM256.75 286.54H280.88C292.12 286.54 302.11 284.2 310.85 279.53C319.58 274.86 326.46 268.16 331.48 259.42C336.5 250.69 339 240.35 339 228.41C339 216.47 336.49 205.93 331.48 197.27C326.46 188.62 319.59 181.96 310.85 177.29C302.11 172.62 292.12 170.28 280.88 170.28H256.75V286.52V286.54Z" fill="#FFD843"/>
<path d="M376.11 319.23L435.27 157.84C438.21 150.06 442.84 144.22 449.15 140.33C455.46 136.44 462.6 134.49 470.56 134.49C478.52 134.49 485.69 136.35 492.1 140.07C498.5 143.79 503.08 149.63 505.85 157.58L565.27 319.23H524.53L512.33 282.65H427.74L415.03 319.23H376.11ZM438.9 249.96H501.43L475.22 170.3C474.87 169.09 474.31 168.22 473.53 167.71C472.75 167.2 471.84 166.93 470.81 166.93C469.78 166.93 468.9 167.23 468.22 167.84C467.53 168.45 467.01 169.27 466.66 170.3L438.9 249.96Z" fill="#FFD843"/>
<path d="M653.73 322.35C639.03 322.35 626.01 319.32 614.68 313.27C603.35 307.22 594.44 298.61 587.95 287.45C581.46 276.29 578.22 263.02 578.22 247.62V137.61H615.32V249.96C615.32 257.23 616.88 263.84 619.99 269.81C623.1 275.78 627.55 280.58 633.35 284.21C639.14 287.84 646.02 289.66 653.98 289.66C661.94 289.66 668.51 287.84 674.22 284.21C679.93 280.58 684.34 275.78 687.45 269.81C690.56 263.84 692.12 257.23 692.12 249.96V137.61H729.22V247.62C729.22 263.02 725.98 276.29 719.49 287.45C713 298.61 704.09 307.21 692.76 313.27C681.43 319.32 668.41 322.35 653.71 322.35H653.73Z" fill="#FFD843"/>
<path d="M1028.98 319.23C1018.25 319.23 1008.83 316.77 1000.7 311.83C992.57 306.9 986.25 300.33 981.76 292.11C977.26 283.9 975.01 274.86 975.01 265V170.29H924.41V137.6H1062.71V170.29H1012.11V269.41C1012.11 274.08 1013.75 278.1 1017.04 281.48C1020.32 284.85 1024.31 286.54 1028.98 286.54H1041.95V319.23H1028.98Z" fill="#FFD843"/>
<path d="M1135.62 319.23C1124.89 319.23 1115.47 316.77 1107.34 311.83C1099.21 306.9 1092.89 300.33 1088.4 292.11C1083.9 283.9 1081.65 274.86 1081.65 265V137.6H1118.75V269.41C1118.75 274.08 1120.39 278.1 1123.68 281.48C1126.96 284.85 1130.94 286.54 1135.62 286.54H1183.62V319.23H1135.62Z" fill="#FFD843"/>
<path d="M1253.42 319.23C1243.39 319.23 1234.26 316.81 1226.05 311.96C1217.83 307.12 1211.3 300.59 1206.46 292.37C1201.62 284.16 1199.2 275.03 1199.2 265C1199.2 257.73 1200.76 250.9 1203.87 244.5C1206.98 238.1 1211.22 232.48 1216.58 227.63C1211.22 222.79 1206.98 217.17 1203.87 210.76C1200.76 204.36 1199.2 197.62 1199.2 190.52C1199.2 180.66 1201.58 171.75 1206.33 163.79C1211.09 155.84 1217.49 149.48 1225.53 144.72C1233.57 139.96 1242.44 137.58 1252.12 137.58H1326.85V170.27H1256.28C1252.65 170.27 1249.31 171.18 1246.29 172.99C1243.26 174.81 1240.84 177.23 1239.03 180.26C1237.21 183.29 1236.31 186.71 1236.31 190.51C1236.31 194.31 1237.22 197.48 1239.03 200.5C1240.85 203.53 1243.27 205.95 1246.29 207.76C1249.31 209.58 1252.65 210.48 1256.28 210.48H1318.03V243.17H1257.83C1253.85 243.17 1250.22 244.17 1246.93 246.15C1243.64 248.14 1241.05 250.78 1239.15 254.06C1237.24 257.35 1236.3 260.98 1236.3 264.96C1236.3 268.94 1237.25 272.57 1239.15 275.86C1241.05 279.15 1243.65 281.74 1246.93 283.64C1250.21 285.55 1253.85 286.49 1257.83 286.49H1326.85V319.18H1253.42V319.23Z" fill="#FFD843"/>
<path d="M1355.13 319.23V286.54H1432.97C1436.77 286.54 1440.24 285.59 1443.35 283.69C1446.46 281.79 1448.97 279.24 1450.87 276.04C1452.77 272.84 1453.72 269.34 1453.72 265.53C1453.72 261.72 1452.77 257.97 1450.87 254.76C1448.96 251.56 1446.46 249.01 1443.35 247.11C1440.24 245.21 1436.77 244.26 1432.97 244.26H1402.61C1392.4 244.26 1383.15 242.18 1374.85 238.03C1366.55 233.88 1359.93 227.87 1355 220C1350.07 212.13 1347.61 202.66 1347.61 191.59C1347.61 180.52 1349.94 171.22 1354.62 163.18C1359.29 155.14 1365.6 148.87 1373.56 144.37C1381.51 139.87 1390.34 137.62 1400.03 137.62H1478.91V170.31H1403.66C1400.2 170.31 1397 171.22 1394.06 173.03C1391.12 174.85 1388.83 177.23 1387.18 180.17C1385.53 183.11 1384.72 186.4 1384.72 190.03C1384.72 193.66 1385.54 196.95 1387.18 199.89C1388.82 202.83 1391.11 205.17 1394.06 206.9C1397 208.63 1400.2 209.49 1403.66 209.49H1435.06C1446.3 209.49 1456.08 211.66 1464.38 215.98C1472.68 220.31 1479.13 226.36 1483.71 234.14C1488.29 241.92 1490.59 251.01 1490.59 261.38C1490.59 273.66 1488.21 284.13 1483.46 292.78C1478.7 301.43 1472.3 308 1464.26 312.5C1456.22 317 1447.35 319.25 1437.67 319.25H1355.16L1355.13 319.23Z" fill="#FFD843"/>
<path d="M1517.55 319.23V286.54H1595.39C1599.19 286.54 1602.66 285.59 1605.77 283.69C1608.88 281.79 1611.39 279.24 1613.29 276.04C1615.19 272.84 1616.14 269.34 1616.14 265.53C1616.14 261.72 1615.19 257.97 1613.29 254.76C1611.38 251.56 1608.88 249.01 1605.77 247.11C1602.66 245.21 1599.19 244.26 1595.39 244.26H1565.03C1554.82 244.26 1545.57 242.18 1537.27 238.03C1528.97 233.88 1522.35 227.87 1517.42 220C1512.49 212.13 1510.03 202.66 1510.03 191.59C1510.03 180.52 1512.36 171.22 1517.04 163.18C1521.71 155.14 1528.02 148.87 1535.98 144.37C1543.93 139.87 1552.76 137.62 1562.45 137.62H1641.33V170.31H1566.08C1562.62 170.31 1559.42 171.22 1556.48 173.03C1553.54 174.85 1551.25 177.23 1549.6 180.17C1547.95 183.11 1547.14 186.4 1547.14 190.03C1547.14 193.66 1547.96 196.95 1549.6 199.89C1551.24 202.83 1553.53 205.17 1556.48 206.9C1559.42 208.63 1562.62 209.49 1566.08 209.49H1597.48C1608.72 209.49 1618.5 211.66 1626.8 215.98C1635.1 220.31 1641.55 226.36 1646.13 234.14C1650.71 241.92 1653.01 251.01 1653.01 261.38C1653.01 273.66 1650.63 284.13 1645.88 292.78C1641.12 301.43 1634.72 308 1626.68 312.5C1618.64 317 1609.77 319.25 1600.09 319.25H1517.58L1517.55 319.23Z" fill="#FFD843"/>
<path d="M837.17 132.49C851.87 132.49 864.89 135.52 876.22 141.57C887.55 147.62 896.46 156.23 902.95 167.39C909.44 178.55 912.68 191.82 912.68 207.22V317.23H875.58V204.88C875.58 197.61 874.02 191 870.91 185.03C867.8 179.06 863.35 174.26 857.55 170.63C851.76 167 844.88 165.18 836.92 165.18C828.96 165.18 822.39 167 816.68 170.63C810.97 174.26 806.56 179.06 803.45 185.03C800.34 191 798.78 197.61 798.78 204.88V317.23H761.68V207.22C761.68 191.82 764.92 178.55 771.41 167.39C777.9 156.23 786.81 147.63 798.14 141.57C809.47 135.52 822.49 132.49 837.19 132.49H837.17Z" fill="#FFD843"/>
</svg>
