<svg width="2351" height="680" viewBox="0 0 2351 680" fill="none" xmlns="http://www.w3.org/2000/svg">
<path d="M707.31 565.63C699.75 565.63 693.03 563.67 687.15 560.03C681.27 556.39 676.51 550.23 673.43 542.11L612.1 366.25H649.07L701.16 528.39C702 530.35 702.84 531.75 703.68 532.59C704.52 533.71 705.92 534.27 707.32 534.27C708.72 534.27 710.12 533.71 711.24 532.59C712.08 531.75 712.92 530.35 713.48 528.39L767.25 366.25H802.53L741.2 542.11C738.4 549.95 733.92 555.83 727.76 559.75C721.88 563.67 714.88 565.63 707.32 565.63H707.31Z" fill="#006492"/>
<path d="M817.36 562.27V532.87H853.76V395.65H817.36V366.25H923.77V395.65H887.37V532.87H923.77V562.27H817.36Z" fill="#006492"/>
<path d="M958.23 562.27V532.87H1042.52C1047.84 532.87 1052.6 531.47 1056.8 528.95C1060.72 526.43 1063.8 522.79 1066.32 518.59C1068.56 514.39 1069.68 510.19 1069.68 505.43C1069.68 500.39 1068.56 495.91 1066.32 491.71C1064.08 487.51 1061 484.43 1057.08 481.91C1052.88 479.39 1048.4 478.27 1043.08 478.27H1008.08C997.16 478.27 987.08 476.03 978.4 471.27C970 466.79 963 460.35 957.96 452.23C952.92 444.11 950.4 434.31 950.4 423.11C950.4 411.91 952.92 402.11 957.68 393.43C962.44 385.03 969.16 378.31 977.56 373.55C985.96 368.79 995.48 366.27 1006.12 366.27H1090.41V395.67H1009.2C1004.44 395.67 999.96 396.79 996.04 399.31C992.12 401.83 989.04 404.91 986.8 408.83C984.84 412.75 983.72 416.95 983.72 421.43C983.72 426.19 984.84 430.39 986.8 434.03C989.04 437.95 992.12 441.03 995.76 443.27C999.68 445.79 1004.16 446.91 1008.92 446.91H1044.76C1056.8 446.91 1067.16 449.15 1075.84 453.91C1084.52 458.67 1091.24 465.11 1096 473.23C1100.76 481.35 1103 490.87 1103 501.51C1103 514.11 1100.48 524.75 1095.72 533.71C1090.68 542.95 1083.96 549.95 1075.56 554.71C1066.88 559.75 1057.36 562.27 1046.72 562.27H958.23Z" fill="#006492"/>
<path d="M1128.49 562.27V532.87H1164.89V395.65H1128.49V366.25H1234.9V395.65H1198.5V532.87H1234.9V562.27H1128.49Z" fill="#006492"/>
<path d="M1361.75 565.91C1346.35 565.91 1332.35 563.11 1319.74 557.79C1306.86 552.47 1296.22 545.19 1287.54 535.95C1278.58 526.71 1271.58 515.79 1266.82 503.47C1262.06 491.15 1259.54 477.99 1259.54 463.98C1259.54 449.97 1262.06 436.82 1266.82 424.49C1271.58 412.45 1278.58 401.53 1287.54 392.29C1296.22 383.05 1306.86 375.77 1319.74 370.45C1332.34 365.13 1346.34 362.61 1362.03 362.61C1377.72 362.61 1391.43 365.13 1404.04 370.45C1416.64 375.77 1427.28 383.05 1436.24 392.29C1445.2 401.53 1452.2 412.45 1456.96 424.49C1461.72 436.81 1464.24 449.97 1464.24 463.98C1464.24 477.99 1461.72 491.14 1456.96 503.47C1452.2 515.79 1445.2 526.71 1436.24 535.95C1427.28 545.19 1416.64 552.47 1404.04 557.79C1391.44 563.11 1377.44 565.91 1361.75 565.91ZM1361.75 536.23C1371.55 536.23 1380.79 534.55 1389.19 530.91C1397.59 527.27 1404.87 522.23 1411.31 515.51C1417.47 509.07 1422.23 501.23 1425.59 492.55C1428.95 483.87 1430.63 474.35 1430.63 463.99C1430.63 453.63 1428.95 444.11 1425.59 435.43C1422.23 426.75 1417.47 419.19 1411.31 412.47C1404.87 406.03 1397.59 400.99 1389.19 397.35C1380.79 393.71 1371.55 392.03 1361.75 392.03C1351.95 392.03 1342.99 393.71 1334.59 397.35C1326.19 400.99 1318.91 406.03 1312.75 412.47C1306.31 419.19 1301.55 426.75 1297.91 435.43C1294.55 444.11 1292.87 453.63 1292.87 463.99C1292.87 474.35 1294.55 483.87 1297.91 492.55C1301.55 501.23 1306.31 509.07 1312.75 515.51C1318.91 522.23 1326.19 527.27 1334.59 530.91C1342.99 534.55 1351.95 536.23 1361.75 536.23Z" fill="#006492"/>
<path d="M1493.65 562.27V442.97C1493.65 426.45 1497.01 412.17 1504.01 400.12C1510.73 388.08 1519.97 378.84 1532.01 372.4C1544.05 365.96 1557.77 362.88 1573.18 362.88C1588.59 362.88 1602.3 365.96 1614.35 372.4C1626.39 378.84 1635.63 388.08 1642.63 400.12C1649.63 412.16 1652.99 426.44 1652.99 442.97V562.27H1619.39V440.17C1619.39 431.49 1617.43 423.37 1613.79 416.09C1610.15 408.81 1604.83 402.93 1598.11 398.73C1591.11 394.53 1582.99 392.29 1573.19 392.29C1563.95 392.29 1555.83 394.53 1548.83 398.73C1541.83 402.93 1536.51 408.81 1532.87 416.09C1528.95 423.37 1526.99 431.49 1526.99 440.17V562.27H1493.67H1493.65Z" fill="#006492"/>
<path d="M219.65 319.23V137.6H280.88C300.25 137.6 317.03 141.49 331.22 149.28C345.4 157.06 356.43 167.79 364.3 181.45C372.17 195.12 376.11 210.77 376.11 228.41C376.11 246.05 372.17 261.71 364.3 275.37C356.43 289.04 345.4 299.76 331.22 307.54C317.03 315.32 300.26 319.22 280.88 319.22H219.65V319.23ZM256.75 286.54H280.88C292.12 286.54 302.11 284.2 310.85 279.53C319.58 274.86 326.46 268.16 331.48 259.42C336.5 250.69 339 240.35 339 228.41C339 216.47 336.49 205.93 331.48 197.27C326.46 188.62 319.59 181.96 310.85 177.29C302.11 172.62 292.12 170.28 280.88 170.28H256.75V286.52V286.54Z" fill="#FFD843"/>
<path d="M376.11 319.23L435.27 157.84C438.21 150.06 442.84 144.22 449.15 140.33C455.46 136.44 462.6 134.49 470.56 134.49C478.52 134.49 485.69 136.35 492.1 140.07C498.5 143.79 503.08 149.63 505.85 157.58L565.27 319.23H524.53L512.33 282.65H427.74L415.03 319.23H376.11ZM438.9 249.96H501.43L475.22 170.3C474.87 169.09 474.31 168.22 473.53 167.71C472.75 167.2 471.84 166.93 470.81 166.93C469.78 166.93 468.9 167.23 468.22 167.84C467.53 168.45 467.01 169.27 466.66 170.3L438.9 249.96Z" fill="#FFD843"/>
<path d="M653.73 322.35C639.03 322.35 626.01 319.32 614.68 313.27C603.35 307.22 594.44 298.61 587.95 287.45C581.46 276.29 578.22 263.02 578.22 247.62V137.61H615.32V249.96C615.32 257.23 616.88 263.84 619.99 269.81C623.1 275.78 627.55 280.58 633.35 284.21C639.14 287.84 646.02 289.66 653.98 289.66C661.94 289.66 668.51 287.84 674.22 284.21C679.93 280.58 684.34 275.78 687.45 269.81C690.56 263.84 692.12 257.23 692.12 249.96V137.61H729.22V247.62C729.22 263.02 725.98 276.29 719.49 287.45C713 298.61 704.09 307.21 692.76 313.27C681.43 319.32 668.41 322.35 653.71 322.35H653.73Z" fill="#FFD843"/>
<path d="M1028.98 319.23C1018.25 319.23 1008.83 316.77 1000.7 311.83C992.57 306.9 986.25 300.33 981.76 292.11C977.26 283.9 975.01 274.86 975.01 265V170.29H924.41V137.6H1062.71V170.29H1012.11V269.41C1012.11 274.08 1013.75 278.1 1017.04 281.48C1020.32 284.85 1024.31 286.54 1028.98 286.54H1041.95V319.23H1028.98Z" fill="#FFD843"/>
<path d="M1135.62 319.23C1124.89 319.23 1115.47 316.77 1107.34 311.83C1099.21 306.9 1092.89 300.33 1088.4 292.11C1083.9 283.9 1081.65 274.86 1081.65 265V137.6H1118.75V269.41C1118.75 274.08 1120.39 278.1 1123.68 281.48C1126.96 284.85 1130.94 286.54 1135.62 286.54H1183.62V319.23H1135.62Z" fill="#FFD843"/>
<path d="M1253.42 319.23C1243.39 319.23 1234.26 316.81 1226.05 311.96C1217.83 307.12 1211.3 300.59 1206.46 292.37C1201.62 284.16 1199.2 275.03 1199.2 265C1199.2 257.73 1200.76 250.9 1203.87 244.5C1206.98 238.1 1211.22 232.48 1216.58 227.63C1211.22 222.79 1206.98 217.17 1203.87 210.76C1200.76 204.36 1199.2 197.62 1199.2 190.52C1199.2 180.66 1201.58 171.75 1206.33 163.79C1211.09 155.84 1217.49 149.48 1225.53 144.72C1233.57 139.96 1242.44 137.58 1252.12 137.58H1326.85V170.27H1256.28C1252.65 170.27 1249.31 171.18 1246.29 172.99C1243.26 174.81 1240.84 177.23 1239.03 180.26C1237.21 183.29 1236.31 186.71 1236.31 190.51C1236.31 194.31 1237.22 197.48 1239.03 200.5C1240.85 203.53 1243.27 205.95 1246.29 207.76C1249.31 209.58 1252.65 210.48 1256.28 210.48H1318.03V243.17H1257.83C1253.85 243.17 1250.22 244.17 1246.93 246.15C1243.64 248.14 1241.05 250.78 1239.15 254.06C1237.24 257.35 1236.3 260.98 1236.3 264.96C1236.3 268.94 1237.25 272.57 1239.15 275.86C1241.05 279.15 1243.65 281.74 1246.93 283.64C1250.21 285.55 1253.85 286.49 1257.83 286.49H1326.85V319.18H1253.42V319.23Z" fill="#FFD843"/>
<path d="M1355.13 319.23V286.54H1432.97C1436.77 286.54 1440.24 285.59 1443.35 283.69C1446.46 281.79 1448.97 279.24 1450.87 276.04C1452.77 272.84 1453.72 269.34 1453.72 265.53C1453.72 261.72 1452.77 257.97 1450.87 254.76C1448.96 251.56 1446.46 249.01 1443.35 247.11C1440.24 245.21 1436.77 244.26 1432.97 244.26H1402.61C1392.4 244.26 1383.15 242.18 1374.85 238.03C1366.55 233.88 1359.93 227.87 1355 220C1350.07 212.13 1347.61 202.66 1347.61 191.59C1347.61 180.52 1349.94 171.22 1354.62 163.18C1359.29 155.14 1365.6 148.87 1373.56 144.37C1381.51 139.87 1390.34 137.62 1400.03 137.62H1478.91V170.31H1403.66C1400.2 170.31 1397 171.22 1394.06 173.03C1391.12 174.85 1388.83 177.23 1387.18 180.17C1385.53 183.11 1384.72 186.4 1384.72 190.03C1384.72 193.66 1385.54 196.95 1387.18 199.89C1388.82 202.83 1391.11 205.17 1394.06 206.9C1397 208.63 1400.2 209.49 1403.66 209.49H1435.06C1446.3 209.49 1456.08 211.66 1464.38 215.98C1472.68 220.31 1479.13 226.36 1483.71 234.14C1488.29 241.92 1490.59 251.01 1490.59 261.38C1490.59 273.66 1488.21 284.13 1483.46 292.78C1478.7 301.43 1472.3 308 1464.26 312.5C1456.22 317 1447.35 319.25 1437.67 319.25H1355.16L1355.13 319.23Z" fill="#FFD843"/>
<path d="M1517.55 319.23V286.54H1595.39C1599.19 286.54 1602.66 285.59 1605.77 283.69C1608.88 281.79 1611.39 279.24 1613.29 276.04C1615.19 272.84 1616.14 269.34 1616.14 265.53C1616.14 261.72 1615.19 257.97 1613.29 254.76C1611.38 251.56 1608.88 249.01 1605.77 247.11C1602.66 245.21 1599.19 244.26 1595.39 244.26H1565.03C1554.82 244.26 1545.57 242.18 1537.27 238.03C1528.97 233.88 1522.35 227.87 1517.42 220C1512.49 212.13 1510.03 202.66 1510.03 191.59C1510.03 180.52 1512.36 171.22 1517.04 163.18C1521.71 155.14 1528.02 148.87 1535.98 144.37C1543.93 139.87 1552.76 137.62 1562.45 137.62H1641.33V170.31H1566.08C1562.62 170.31 1559.42 171.22 1556.48 173.03C1553.54 174.85 1551.25 177.23 1549.6 180.17C1547.95 183.11 1547.14 186.4 1547.14 190.03C1547.14 193.66 1547.96 196.95 1549.6 199.89C1551.24 202.83 1553.53 205.17 1556.48 206.9C1559.42 208.63 1562.62 209.49 1566.08 209.49H1597.48C1608.72 209.49 1618.5 211.66 1626.8 215.98C1635.1 220.31 1641.55 226.36 1646.13 234.14C1650.71 241.92 1653.01 251.01 1653.01 261.38C1653.01 273.66 1650.63 284.13 1645.88 292.78C1641.12 301.43 1634.72 308 1626.68 312.5C1618.64 317 1609.77 319.25 1600.09 319.25H1517.58L1517.55 319.23Z" fill="#FFD843"/>
<path d="M837.17 132.49C851.87 132.49 864.89 135.52 876.22 141.57C887.55 147.62 896.46 156.23 902.95 167.39C909.44 178.55 912.68 191.82 912.68 207.22V317.23H875.58V204.88C875.58 197.61 874.02 191 870.91 185.03C867.8 179.06 863.35 174.26 857.55 170.63C851.76 167 844.88 165.18 836.92 165.18C828.96 165.18 822.39 167 816.68 170.63C810.97 174.26 806.56 179.06 803.45 185.03C800.34 191 798.78 197.61 798.78 204.88V317.23H761.68V207.22C761.68 191.82 764.92 178.55 771.41 167.39C777.9 156.23 786.81 147.63 798.14 141.57C809.47 135.52 822.49 132.49 837.19 132.49H837.17Z" fill="#FFD843"/>
<path d="M1954.88 117.108C1955.64 117.117 1956.38 117.126 1957.12 117.134C1987.36 117.427 2020.74 129.348 2041.81 151.734V153.497H2043.57C2044.17 154.696 2044.75 155.86 2045.33 157.024H2047.09C2047.63 157.655 2048.16 158.268 2048.68 158.88C2049.34 159.748 2049.98 160.591 2050.62 161.433C2056.57 168.717 2062.22 176.088 2067.05 184.18C2085.76 216.841 2086.82 252.966 2077.44 288.791C2076.32 293.052 2075.33 297.327 2074.41 301.634C2078.27 304.525 2082.09 307.287 2085.14 311.058C2085.76 311.864 2086.36 312.646 2086.97 313.428C2090.18 317.168 2092.26 318.064 2097.15 318.553C2114.49 319.949 2132.12 338.887 2143.1 351.534C2143.71 352.256 2144.3 352.958 2144.9 353.659C2146.73 355.734 2148.5 357.824 2150.21 360.003C2163.91 379.497 2169.39 403.364 2166.05 426.846C2164.09 436.3 2158.44 445.72 2150.57 451.401C2145.2 455.208 2143.11 457.74 2141.92 464.242C2138.47 484.188 2130.74 502.765 2116.7 517.668L2114.94 519.432C2112.56 521.596 2108.53 525.471 2108.5 525.5L2106.13 527.368C2106.09 527.4 2103.38 529.461 2101.97 530.419C2101.29 530.881 2100.62 531.329 2099.96 531.777C2098.43 532.889 2096.88 533.991 2095.34 535.084C2056.65 560.636 2002.65 570.451 1952 570.231C1901.35 570.451 1847.35 560.636 1808.67 535.084C1807.12 533.991 1805.57 532.889 1804.04 531.777C1803.38 531.329 1802.71 530.881 1802.03 530.419C1800.62 529.464 1797.93 527.411 1797.87 527.368L1795.5 525.5C1795.5 525.5 1791.45 521.604 1789.06 519.432L1787.3 517.668C1773.26 502.765 1765.53 484.188 1762.08 464.242C1760.89 457.741 1758.8 455.208 1753.43 451.401C1745.56 445.72 1739.91 436.3 1737.95 426.846C1734.62 403.363 1740.09 379.497 1753.79 360.003C1755.5 357.823 1757.27 355.734 1759.1 353.659C1759.7 352.957 1760.29 352.256 1760.9 351.534C1771.88 338.886 1789.51 319.949 1806.85 318.553C1811.74 318.064 1813.82 317.168 1817.04 313.428C1817.64 312.646 1818.24 311.864 1818.86 311.058C1821.91 307.287 1825.73 304.525 1829.59 301.634C1828.67 297.327 1827.68 293.052 1826.56 288.791C1817.18 252.966 1818.24 216.841 1836.95 184.18C1841.78 176.088 1847.43 168.718 1853.38 161.433C1854.02 160.591 1854.66 159.748 1855.32 158.88C1855.84 158.268 1856.37 157.655 1856.91 157.024H1858.67C1859.25 155.86 1859.83 154.696 1860.43 153.497H1862.19V151.734C1883.26 129.348 1916.64 117.427 1946.88 117.134C1947.62 117.126 1948.36 117.117 1949.13 117.108C1950.11 117.099 1951.07 117.092 1952 117.084C1952.93 117.092 1953.89 117.099 1954.88 117.108ZM1903.63 226.259C1905.17 216.527 1896.15 207.856 1886.36 209.952L1885.9 210.059L1884.09 210.515C1875.08 212.825 1866.33 215.595 1857.97 218.806C1853.62 220.481 1850.54 224.235 1849.67 228.735L1849.6 229.173V229.174L1818.61 425.281L1806.45 424.675L1805.9 424.658C1794.46 424.5 1788.07 437.45 1795.21 446.791L1825.72 486.703C1830.72 493.247 1840.1 494.425 1846.15 489.267L1888.72 453.001L1888.72 453C1898.25 444.874 1892.32 428.967 1879.53 428.324L1871.77 427.933L1883.51 353.61C1885.06 354.564 1886.49 355.489 1887.88 356.461V356.46C1906.53 369.661 1927.91 370.412 1946.03 370.36H1946.08C1949.06 370.338 1951.99 370.317 1954.91 370.32C1964.09 370.338 1974.86 370.559 1985.64 368.538L1985.81 368.506L1985.97 368.471C1986.69 368.315 1987.39 368.162 1988.09 368.01C1991.26 367.362 1994.33 366.635 1997.28 365.923L1997.29 365.92L1997.3 365.918C1998.12 365.717 1998.93 365.52 1999.74 365.324C2006.45 363.884 2013.46 361.707 2020.15 358.127L2031.25 428.402L2023.49 428.792C2010.7 429.434 2004.76 445.341 2014.3 453.469V453.47L2056.86 489.739H2056.86C2062.92 494.896 2072.29 493.72 2077.3 487.176V487.175L2107.81 447.264C2114.96 437.924 2108.57 424.973 2097.12 425.13L2096.57 425.148L2084.41 425.752L2053.44 229.644L2053.36 229.208C2052.5 224.715 2049.43 220.954 2045.06 219.276H2045.06C2036.15 215.85 2026.78 212.926 2017.14 210.528H2017.14C2007.17 208.05 1997.84 216.845 1999.4 226.729L2008.53 284.51C2003.33 282.313 1998.54 280.183 1993.96 277.678H1993.96C1991.3 276.222 1988.63 274.823 1986.04 273.468L1986.02 273.46L1986.01 273.453L1984.05 272.438C1982.81 271.791 1981.56 271.148 1980.3 270.509L1980.21 270.464L1980.12 270.42L1978.95 269.858C1973.05 267.104 1967.09 265.276 1960.64 264.907C1953.75 264.512 1947.15 265.834 1940.39 268.329L1940.38 268.333C1939.75 268.568 1939.13 268.798 1938.51 269.027V269.028C1934.68 270.421 1930.56 272.016 1926.41 274.117L1926.35 274.148C1923.66 275.528 1920.89 276.82 1917.99 278.105C1916.66 278.688 1915.34 279.273 1914.01 279.858L1914.01 279.859C1913.28 280.181 1912.58 280.487 1911.88 280.799C1909.75 281.737 1907.6 282.689 1905.45 283.661L1905.44 283.667L1905.43 283.671C1901.39 285.505 1897.55 287.243 1893.74 288.834L1903.63 226.26L1903.63 226.259ZM2011.3 224.444C2011.07 223.024 2012.41 221.791 2013.81 222.139C2023.01 224.429 2031.92 227.212 2040.35 230.455C2040.99 230.699 2041.44 231.259 2041.54 231.931L2073.86 436.524C2074.01 437.497 2074.87 438.185 2075.87 438.135L2096.73 437.096C2098.41 437.013 2099.37 438.9 2098.33 440.255L2067.81 480.167C2067.1 481.102 2065.76 481.27 2064.89 480.534L2022.33 444.265C2020.97 443.105 2021.82 440.832 2023.65 440.74L2042.97 439.77C2044.19 439.709 2045.11 438.589 2044.92 437.398L2031.5 352.371C2036.87 349.324 2041.86 344.941 2045.46 338.309L2045.7 337.882L2045.89 337.439C2047.51 333.783 2048.64 329.941 2048.85 325.703C2049.06 321.478 2048.33 317.554 2047.13 313.784L2046.96 313.251L2046.74 312.737L2045.95 310.884C2044.07 306.487 2041.71 301.618 2036.05 297.49C2032.63 294.992 2027.89 292.733 2021.65 290.047L2011.3 224.444ZM1889.23 221.671C1890.62 221.323 1891.96 222.554 1891.73 223.974L1880.72 293.718C1876.48 295.348 1871.31 297.797 1867.18 301.718L1865.93 302.904L1865.06 304.394C1861.89 309.85 1859.84 315.644 1860.9 323.489L1860.99 324.197L1861.17 324.889C1862.62 330.477 1864.74 335.627 1868.09 340.307C1869.44 342.188 1870.93 343.906 1872.54 345.494L1858.1 436.928C1857.91 438.119 1858.83 439.239 1860.05 439.3L1879.37 440.271C1881.2 440.363 1882.05 442.635 1880.69 443.795L1838.12 480.062C1837.26 480.799 1835.92 480.631 1835.2 479.696L1804.69 439.783C1803.65 438.427 1804.61 436.54 1806.3 436.624L1827.15 437.663C1828.15 437.712 1829.01 437.026 1829.16 436.052L1861.49 231.46C1861.6 230.788 1862.04 230.229 1862.68 229.985C1871.11 226.742 1880.02 223.961 1889.23 221.671ZM1944.55 279.585C1955.84 275.419 1964.24 276.018 1974.86 281.203C1976.08 281.827 1977.31 282.456 1978.53 283.09L1980.48 284.105L1984.35 286.137C1985.64 286.819 1986.92 287.509 1988.2 288.208L1989.42 288.863C1995.54 292.102 2001.88 294.747 2008.27 297.417C2009.12 297.774 2009.94 298.119 2010.73 298.452L2018.13 345.343L2017.02 345.975L2014.65 347.459C2009.14 350.437 2003.14 352.334 1997.03 353.632C1996.18 353.839 1995.33 354.046 1994.46 354.259L1992.24 354.791C1990.03 355.316 1987.81 355.822 1985.58 356.278C1984.87 356.431 1984.16 356.585 1983.43 356.744L1982.54 356.904C1973.4 358.502 1964.19 358.338 1954.93 358.32C1951.95 358.317 1948.97 358.338 1945.99 358.36L1944.29 358.362C1926.74 358.343 1909.55 357.112 1894.78 346.643C1892.26 344.876 1889.69 343.303 1887.05 341.728C1886.54 341.396 1886.03 341.06 1885.55 340.721L1891.57 302.595C1897.98 300.226 1904.17 297.423 1910.39 294.597C1911.45 294.122 1912.5 293.65 1913.56 293.18L1916.72 291.778C1917.43 291.467 1918.13 291.156 1918.86 290.836L1922.85 289.078C1925.51 287.901 1928.13 286.687 1930.72 285.386L1931.83 284.823C1935.36 283.038 1938.97 281.629 1942.68 280.28C1943.29 280.051 1943.91 279.821 1944.55 279.585ZM2023.9 304.242C2031.73 308.102 2032.67 310.312 2035.69 317.424C2037.48 323.04 2037.28 327.239 2034.92 332.58L2034.59 333.176C2033.16 335.63 2031.43 337.629 2029.43 339.292L2023.9 304.242ZM1875.19 328.733C1874.23 326.671 1873.44 324.409 1872.79 321.888C1872.19 317.424 1873.17 314.317 1875.43 310.425C1876.37 309.541 1877.38 308.773 1878.45 308.091L1875.19 328.733Z" fill="#006492"/>
<path fill-rule="evenodd" clip-rule="evenodd" d="M1891.73 222.959C1891.95 221.539 1890.62 220.308 1889.22 220.656C1880.02 222.945 1871.11 225.728 1862.67 228.971C1862.04 229.215 1861.59 229.773 1861.48 230.446L1829.17 435.04C1829.02 436.014 1828.16 436.699 1827.16 436.65L1806.3 435.612C1804.62 435.528 1803.66 437.415 1804.7 438.771L1835.22 478.683C1835.93 479.618 1837.27 479.786 1838.13 479.049L1880.69 442.781C1882.06 441.62 1881.21 439.347 1879.38 439.255L1860.06 438.285C1858.84 438.224 1857.92 437.104 1858.1 435.913L1891.73 222.959Z" fill="#FFD843"/>
<path fill-rule="evenodd" clip-rule="evenodd" d="M2011.29 223.431C2011.06 222.011 2012.4 220.779 2013.8 221.127C2023 223.416 2031.91 226.199 2040.34 229.442C2040.98 229.686 2041.43 230.245 2041.53 230.918L2073.85 435.511C2074 436.485 2074.86 437.172 2075.86 437.122L2096.72 436.083C2098.4 436 2099.36 437.887 2098.32 439.243L2067.8 479.155C2067.09 480.09 2065.75 480.258 2064.88 479.521L2022.32 443.252C2020.96 442.092 2021.81 439.819 2023.64 439.727L2042.96 438.757C2044.18 438.696 2045.1 437.576 2044.91 436.385L2011.29 223.431Z" fill="#FFD843"/>
<path fill-rule="evenodd" clip-rule="evenodd" d="M1944.54 279.603C1955.82 275.436 1964.23 276.035 1974.84 281.22C1976.07 281.844 1977.29 282.473 1978.51 283.108C1979.48 283.61 1979.48 283.609 1980.47 284.121C1983.05 285.47 1985.63 286.826 1988.18 288.224C1994.67 291.767 2001.44 294.585 2008.25 297.433C2010.03 298.179 2011.67 298.87 2013.18 299.511L2020.27 344.389C2019.86 344.54 2019.46 344.688 2019.04 344.831L2017.01 345.991L2014.64 347.477C2009.12 350.455 2003.13 352.351 1997.02 353.649C1996.17 353.855 1995.32 354.062 1994.44 354.276C1991.48 354.991 1988.54 355.686 1985.56 356.294C1984.85 356.448 1984.14 356.602 1983.41 356.76C1973.98 358.529 1964.48 358.355 1954.91 358.336C1951.93 358.333 1948.96 358.354 1945.98 358.376C1927.83 358.429 1910.01 357.467 1894.76 346.66C1892.25 344.893 1889.68 343.321 1887.04 341.745C1885.76 340.925 1884.58 340.085 1883.49 339.216L1889.13 303.479C1889.69 303.283 1890.25 303.09 1890.8 302.891C1897.48 300.465 1903.91 297.551 1910.38 294.614C1912.48 293.663 1914.59 292.727 1916.71 291.794C1917.41 291.484 1918.12 291.173 1918.84 290.854C1920.17 290.266 1921.5 289.679 1922.83 289.094C1925.87 287.749 1928.86 286.357 1931.82 284.84C1935.34 283.055 1938.95 281.646 1942.66 280.296C1943.28 280.067 1943.9 279.839 1944.54 279.603Z" fill="#FFD843"/>
</svg>
